<svg width="300" height="245" viewBox="0 0 300 245" fill="none" xmlns="http://www.w3.org/2000/svg">
<path d="M224.351 201.383C225.902 202.176 226.13 204.453 225.253 205.946C224.376 207.439 222.723 208.333 221.179 209.067C217.464 210.791 213.565 212.084 209.556 212.922C207.743 213.31 205.339 214.339 205.795 216.144C206.123 217.586 207.988 217.932 209.464 217.957C231.393 218.295 253.079 212.407 275 212.896C276.451 212.896 278.062 213.057 279.057 214.119C280.314 215.461 279.976 217.62 279.268 219.315C275.354 228.728 264.086 232.397 254.015 234.025C231.081 237.745 207.684 236.682 184.455 236.42C138.192 235.914 91.8016 238.639 45.7068 234.607C44.7306 234.609 43.773 234.34 42.9403 233.831C42.1187 233.103 41.6134 232.083 41.5317 230.989C40.7473 225.38 45.2345 220.108 50.5145 218.058C55.7945 216.009 61.6565 216.371 67.3077 216.785C91.2534 218.472 115.3 219.906 139.238 218.101C154.915 217.053 170.422 214.223 185.459 209.666C192.367 207.515 199.359 203.281 206.419 201.991C208.595 201.594 210.805 201.864 212.998 201.754C216.186 201.594 221.382 199.873 224.351 201.383Z" fill="url(#paint0_linear_1_650)"/>
<path d="M164.457 14.7099L86.3782 22.3937C78.3148 23.1866 71.7696 29.9848 71.7696 37.5337V212.593C71.7696 220.184 78.3148 225.649 86.3782 224.857L164.457 217.173C172.529 216.38 179.074 209.582 179.074 202.041V26.9821C179.074 19.4079 172.529 13.917 164.457 14.7099ZM171.618 202.412C171.618 207.077 167.586 211.252 162.618 211.741L86.7493 219.205C81.773 219.695 77.7413 216.312 77.7413 211.614V37.0192C77.7413 32.3549 81.773 28.1798 86.7493 27.6906L98.1191 26.5688V27.6063C98.1191 30.5921 100.7 32.7598 103.88 32.4477L145.842 28.3738C147.363 28.2451 148.786 27.569 149.847 26.4709C150.908 25.3727 151.535 23.9271 151.611 22.4022V21.4069L162.576 20.3273C167.544 19.8381 171.576 23.2203 171.576 27.9184L171.618 202.412Z" fill="#4CD080"/>
<path d="M168.134 17.9403L90.0472 25.6242C81.9838 26.417 75.4386 33.2152 75.4386 40.8063V215.823C75.4386 223.414 81.9838 228.88 90.0472 228.087L168.134 220.412C176.198 219.619 182.743 212.821 182.743 205.272V30.2125C182.743 22.6468 176.206 17.1896 168.134 17.9403ZM175.295 205.643C175.295 210.307 171.264 214.482 166.287 214.971L90.3762 222.436C85.3998 222.925 81.3681 219.543 81.3681 214.845V40.2497C81.3681 35.5854 85.3998 31.4018 90.3762 30.9126L101.788 29.8414V30.8704C101.788 33.8563 104.369 36.0239 107.549 35.7119L149.519 31.5874C151.037 31.4535 152.455 30.7766 153.513 29.6812C154.571 28.5857 155.199 27.1451 155.28 25.6242V24.6036L166.287 23.5155C171.264 23.0263 175.295 26.417 175.295 31.1066V205.643Z" fill="#105D38"/>
<path d="M175.295 31.0813V205.676C175.295 210.341 171.264 214.516 166.287 215.005L90.3762 222.47C85.3998 222.959 81.3681 219.577 81.3681 214.879V40.2834C81.3681 35.6191 85.3998 31.4356 90.3762 30.9464L101.788 29.8414V30.8704C101.788 33.8563 104.369 36.024 107.549 35.7119L149.519 31.5874C151.037 31.4535 152.455 30.7766 153.513 29.6812C154.571 28.5857 155.199 27.1451 155.28 25.6242V24.6036L166.287 23.5155C171.264 23.0263 175.295 26.417 175.295 31.0813Z" stroke="url(#paint1_linear_1_650)" stroke-width="0.63" stroke-miterlimit="10"/>
<path d="M175.295 31.0813V205.676C175.295 210.341 171.264 214.516 166.287 215.005L90.3762 222.47C85.3998 222.959 81.3681 219.577 81.3681 214.879V40.2834C81.3681 35.6191 85.3998 31.4356 90.3762 30.9464L101.788 29.8414V30.8704C101.788 33.8563 104.369 36.024 107.549 35.7119L149.519 31.5874C151.037 31.4535 152.455 30.7766 153.513 29.6812C154.571 28.5857 155.199 27.1451 155.28 25.6242V24.6036L166.287 23.5155C171.264 23.0263 175.295 26.417 175.295 31.0813Z" fill="#4CD080"/>
<path d="M149.384 196.744L111.26 200.396C110.723 200.441 110.182 200.373 109.672 200.198C109.162 200.022 108.695 199.743 108.298 199.378C107.902 199.012 107.586 198.569 107.369 198.075C107.153 197.581 107.042 197.047 107.043 196.508V186.969C107.042 185.987 107.408 185.041 108.067 184.314C108.727 183.587 109.634 183.133 110.611 183.038L148.718 179.386C149.259 179.334 149.805 179.396 150.321 179.568C150.837 179.74 151.311 180.018 151.713 180.384C152.115 180.751 152.436 181.197 152.655 181.695C152.875 182.192 152.987 182.731 152.986 183.274V192.814C152.983 193.8 152.613 194.75 151.947 195.477C151.28 196.204 150.367 196.656 149.384 196.744V196.744Z" fill="url(#paint2_linear_1_650)"/>
<path d="M134.253 29.3185L119.83 30.7355V29.5378L134.253 28.1208V29.3185Z" fill="url(#paint3_linear_1_650)"/>
<path d="M138.778 29.3946C139.546 28.9456 139.844 28.0274 139.445 27.3437C139.045 26.6601 138.098 26.4699 137.33 26.9189C136.562 27.3679 136.264 28.2861 136.663 28.9698C137.063 29.6535 138.01 29.8437 138.778 29.3946Z" fill="url(#paint4_linear_1_650)"/>
<path d="M100.295 163.2L155.297 157.928C157.151 157.761 158.875 156.902 160.125 155.522C161.375 154.142 162.061 152.343 162.045 150.481V88.4278C162.036 87.2998 161.794 86.1857 161.335 85.1554C160.876 84.125 160.209 83.2005 159.376 82.4397C158.543 81.6789 157.562 81.0981 156.494 80.7338C155.427 80.3694 154.296 80.2293 153.171 80.3222L98.1697 85.5938C96.316 85.759 94.5924 86.6162 93.3421 87.9947C92.0917 89.3733 91.4063 91.172 91.4221 93.033V155.094C91.431 156.222 91.6726 157.337 92.1318 158.367C92.591 159.397 93.2579 160.322 94.0908 161.083C94.9236 161.843 95.9046 162.424 96.9721 162.788C98.0397 163.153 99.171 163.293 100.295 163.2V163.2Z" fill="#C9D9DF"/>
<path d="M103.543 164.077L158.544 158.806C160.398 158.64 162.122 157.783 163.372 156.405C164.622 155.026 165.308 153.227 165.292 151.366V89.305C165.283 88.177 165.041 87.063 164.582 86.0326C164.123 85.0023 163.456 84.0778 162.623 83.3169C161.79 82.5561 160.809 81.9754 159.742 81.611C158.674 81.2467 157.543 81.1065 156.419 81.1994L101.417 86.471C99.5625 86.6383 97.8389 87.4972 96.5887 88.8771C95.3385 90.257 94.6534 92.0568 94.6694 93.9187V155.972C94.6783 157.1 94.9199 158.214 95.3791 159.244C95.8383 160.274 96.5052 161.199 97.3381 161.96C98.1709 162.721 99.1518 163.301 100.219 163.666C101.287 164.03 102.418 164.17 103.543 164.077V164.077Z" fill="url(#paint5_linear_1_650)"/>
<path d="M105.66 97.8408L125.396 96.2551V116.068L105.66 117.654V97.8408ZM122.124 113.023V99.8482L108.932 100.911V114.162L122.124 113.023Z" fill="#105D38"/>
<path d="M138.706 95.167L158.426 93.5813V113.411L138.706 115.03V95.167ZM155.162 110.4V97.1491L141.962 98.2119V111.463L155.162 110.4Z" fill="#105D38"/>
<path d="M125.396 149.232L105.66 150.818V131.056L125.396 129.47V149.232ZM108.915 147.267L122.141 146.238V132.996L108.915 134.059V147.267Z" fill="#105D38"/>
<path d="M132.018 99.0047L135.307 98.7433V105.331L132.043 105.592V108.882L128.796 109.143V95.9852L132.018 95.7237V99.0047Z" fill="#105D38"/>
<path d="M158.435 123.364L151.906 123.887V120.597L145.31 121.12V117.873L158.435 116.819V123.364Z" fill="#105D38"/>
<path d="M155.17 136.96V140.216L158.426 139.954V146.542L151.923 147.065V137.247L155.17 136.96Z" fill="#105D38"/>
<path d="M112.205 120.53V123.794L115.477 123.532V126.839L105.668 127.632V121.086L112.205 120.53Z" fill="#105D38"/>
<path d="M132.043 118.91L141.894 118.117V124.705L135.332 125.236V121.862L132.043 122.124V118.834V118.91Z" fill="#105D38"/>
<path d="M138.706 128.306L141.97 128.045V124.772L148.516 124.241V130.786L138.706 131.571V128.306Z" fill="#105D38"/>
<path d="M135.332 125.236V131.824L128.77 132.355V125.768L135.366 125.236H135.332Z" fill="#105D38"/>
<path d="M135.324 141.894L137.095 141.717L141.422 141.371H141.911V147.925L135.366 148.456V142.384C135.366 142.223 135.366 142.072 135.366 141.911L135.324 141.894Z" fill="#105D38"/>
<path d="M128.77 125.768L122.2 126.291V123.018L125.447 122.756V119.442L128.762 119.172V125.793L128.77 125.768Z" fill="#105D38"/>
<path d="M158.435 133.3L155.204 133.561V130.28L151.932 130.542V127.277L158.435 126.754V133.3Z" fill="#105D38"/>
<path d="M132.068 142.131V138.757L128.796 139.018V135.779L135.324 135.256V141.878C134.818 141.878 134.32 141.878 133.823 141.945C133.325 142.013 132.642 142.063 132.051 142.122L132.068 142.131Z" fill="#105D38"/>
<path d="M132.077 115.612V108.991L135.307 108.73V115.342L132.06 115.604L132.077 115.612Z" fill="#105D38"/>
<path d="M132.06 142.122V148.153V148.693L128.812 148.954V142.4L132.093 142.131L132.06 142.122Z" fill="#105D38"/>
<path d="M122.09 119.737V122.967L115.587 123.49V120.26L122.09 119.737Z" fill="#105D38"/>
<path d="M145.31 137.669V134.43L151.822 133.907V137.12L145.31 137.669Z" fill="#105D38"/>
<path d="M145.31 147.621V141.093L148.516 140.832V147.36L145.31 147.621Z" fill="#105D38"/>
<path d="M128.762 119.172V115.874L132.077 115.604C132.077 116.709 132.077 117.805 132.077 118.91L128.77 119.18L128.762 119.172Z" fill="#105D38"/>
<path d="M138.698 138.2V134.978L141.903 134.725V137.939L138.698 138.2Z" fill="#105D38"/>
<path d="M135.391 135.147V131.899L138.605 131.638V134.86L135.391 135.147Z" fill="#105D38"/>
<path d="M145.209 141L142.012 141.262V138.031L145.209 137.77V141Z" fill="#105D38"/>
<path d="M118.792 103.424L112.272 103.947V110.476L118.792 109.953V103.424Z" fill="#105D38"/>
<path d="M151.822 107.313V100.768L145.327 101.29V107.836L151.822 107.313Z" fill="#105D38"/>
<path d="M112.255 143.649L118.775 143.126V136.589L112.255 137.112V143.649Z" fill="#105D38"/>
<path d="M118.792 103.424V109.97L112.272 110.493V103.964L118.792 103.424Z" fill="#105D38"/>
<path d="M151.822 107.313L145.327 107.836V101.29L151.822 100.768V107.313Z" fill="#105D38"/>
<path d="M112.255 143.649V137.112L118.775 136.589V143.126L112.255 143.649Z" fill="#105D38"/>
<path d="M151.29 195.479L113.183 199.123C112.642 199.176 112.096 199.115 111.58 198.944C111.065 198.773 110.59 198.496 110.188 198.13C109.786 197.765 109.465 197.319 109.246 196.821C109.026 196.324 108.914 195.786 108.915 195.243V185.703C108.915 184.722 109.28 183.776 109.94 183.049C110.6 182.322 111.506 181.867 112.483 181.773L150.59 178.121C151.132 178.069 151.678 178.131 152.194 178.303C152.71 178.475 153.184 178.753 153.586 179.119C153.988 179.486 154.309 179.932 154.528 180.43C154.747 180.927 154.86 181.465 154.858 182.009V191.549C154.859 192.53 154.493 193.476 153.834 194.203C153.174 194.93 152.267 195.385 151.29 195.479V195.479Z" fill="white"/>
<path d="M120.234 191.355L121.803 191.203C121.806 191.283 121.826 191.361 121.863 191.433C121.899 191.504 121.951 191.567 122.014 191.616C122.185 191.723 122.389 191.765 122.588 191.734C122.787 191.719 122.979 191.652 123.144 191.54C123.219 191.494 123.28 191.43 123.321 191.353C123.363 191.276 123.383 191.189 123.381 191.102C123.386 191.06 123.386 191.017 123.381 190.975C123.332 190.913 123.272 190.861 123.203 190.823C123.065 190.742 122.914 190.685 122.756 190.655L122.006 190.486C121.712 190.437 121.427 190.344 121.162 190.208C120.956 190.107 120.779 189.956 120.648 189.769C120.456 189.494 120.353 189.168 120.353 188.833C120.348 188.563 120.403 188.296 120.512 188.05C120.621 187.804 120.783 187.585 120.985 187.407C121.431 187.014 121.995 186.78 122.588 186.741C123.144 186.656 123.712 186.789 124.173 187.112C124.378 187.268 124.54 187.472 124.648 187.706C124.755 187.94 124.804 188.196 124.789 188.453L123.237 188.597C123.237 188.217 123.018 188.048 122.571 188.09C122.39 188.095 122.216 188.157 122.073 188.268C122.018 188.312 121.973 188.369 121.942 188.433C121.911 188.497 121.896 188.567 121.896 188.639C121.896 188.858 122.09 189.01 122.486 189.086L123.22 189.246C124.401 189.482 124.992 190.089 124.992 190.933C124.999 191.339 124.865 191.736 124.612 192.055C124.378 192.357 124.07 192.596 123.718 192.746C123.371 192.9 123 192.994 122.621 193.025C122.034 193.113 121.434 192.984 120.935 192.662C120.718 192.52 120.541 192.326 120.418 192.097C120.296 191.869 120.233 191.614 120.234 191.355V191.355Z" fill="#4CD080"/>
<path d="M130.348 190.098L131.621 190.832C131.326 191.296 130.928 191.685 130.457 191.97C129.988 192.263 129.456 192.443 128.905 192.493C128.493 192.544 128.075 192.507 127.678 192.385C127.281 192.263 126.915 192.059 126.603 191.785C126.295 191.521 126.049 191.192 125.885 190.821C125.72 190.45 125.639 190.048 125.649 189.642C125.65 188.774 125.993 187.941 126.603 187.323C127.197 186.666 128.021 186.261 128.905 186.193C129.436 186.133 129.974 186.212 130.466 186.42C130.93 186.619 131.332 186.94 131.63 187.348L130.339 188.327C130.19 188.102 129.979 187.927 129.732 187.821C129.468 187.7 129.177 187.653 128.888 187.686C128.427 187.724 127.998 187.939 127.691 188.284C127.375 188.609 127.199 189.046 127.201 189.499C127.193 189.711 127.233 189.922 127.318 190.116C127.403 190.31 127.53 190.483 127.691 190.621C127.852 190.765 128.042 190.873 128.249 190.937C128.456 191.001 128.674 191.02 128.888 190.992C129.188 190.97 129.478 190.875 129.732 190.714C129.981 190.558 130.192 190.347 130.348 190.098Z" fill="#4CD080"/>
<path d="M136.496 191.675L135.956 190.317L133.949 190.503L133.409 191.962L131.722 192.114L134.084 185.754L135.771 185.602L138.116 191.506L136.496 191.675ZM134.936 187.104L134.362 189.178L135.56 189.069L134.936 187.104Z" fill="#4CD080"/>
<path d="M142.063 185.037L143.607 184.894V191.043L142.257 191.161L140.3 187.989V191.363L138.748 191.506V185.358L140.148 185.231L142.063 188.36V185.037Z" fill="#4CD080"/>
<path d="M202.041 99.4349L160.67 80.2885L92.9403 88.4784L94.661 160.746L100.295 163.2L162.036 158.249L165.283 151.366L201.425 102.269L202.041 99.4349Z" fill="url(#paint6_linear_1_650)"/>
<path d="M200.43 103.863V97.807C200.43 97.6064 200.482 97.4093 200.583 97.2359C200.684 97.0625 200.829 96.919 201.004 96.8202L204.378 94.9393C204.732 94.7368 206.132 95.555 206.132 95.9599L205.179 106.351L202.809 108.182L200.439 106.79L200.43 103.863Z" fill="white"/>
<path d="M200.43 103.863V97.807C200.43 97.6064 200.482 97.4093 200.583 97.2359C200.684 97.0625 200.829 96.919 201.004 96.8202L204.378 94.9393C204.732 94.7368 206.132 95.555 206.132 95.9599L205.179 106.351L202.809 108.182L200.439 106.79L200.43 103.863Z" fill="url(#paint7_linear_1_650)"/>
<path d="M201.425 104.614V98.5493C201.425 98.3498 201.477 98.1537 201.578 97.9816C201.679 97.8094 201.824 97.6676 201.999 97.5709L205.373 95.6815C205.454 95.6363 205.546 95.6131 205.639 95.6139C205.733 95.6148 205.824 95.6399 205.905 95.6866C205.986 95.7333 206.053 95.8001 206.1 95.8805C206.147 95.9609 206.173 96.0522 206.174 96.1454V107.11L203.804 108.932L201.434 107.549L201.425 104.614Z" fill="white"/>
<path d="M202.041 104.361V99.4349L205.879 97.0142V105.162L205.035 107.903L203.247 108.494C203.247 108.494 202.294 108.089 202.294 107.962" fill="#4CD080"/>
<path d="M255.685 149.224L255.179 149.907L257.001 123.963L257.363 118.75L257.54 116.22L258.494 118.269C260.282 122.039 263.993 129.926 265.03 132.085C266.22 134.565 257.853 146.238 255.685 149.224Z" fill="#FFAE58"/>
<path opacity="0.1" d="M255.685 149.224C255.475 148.727 255.396 148.183 255.457 147.647C255.68 146.462 256.189 145.35 256.942 144.408C258.949 141.456 261.463 138.327 262.618 134.902C264.136 130.373 259.16 127.564 257.001 123.937C256.448 123.089 256.12 122.113 256.048 121.103C256.012 120.622 256.117 120.14 256.351 119.718C256.584 119.295 256.936 118.95 257.363 118.725C257.714 118.507 258.095 118.342 258.494 118.235C260.282 122.006 263.993 129.892 265.03 132.051C266.22 134.565 257.853 146.238 255.685 149.224Z" fill="#020202"/>
<path d="M243.328 220.606C242.527 220.972 241.864 221.588 241.439 222.36C241.351 222.531 241.324 222.728 241.363 222.917C241.425 223.056 241.517 223.181 241.632 223.282C241.747 223.382 241.883 223.456 242.029 223.499C244.155 224.342 246.559 224.182 248.777 223.777C251.004 223.232 253.277 222.901 255.567 222.79C255.761 222.821 255.959 222.81 256.148 222.758C256.337 222.705 256.513 222.613 256.663 222.487C256.805 222.275 256.873 222.023 256.857 221.77C256.949 219.779 256.604 217.792 255.845 215.95C255.896 216.068 249.831 216.312 249.308 216.667C248.347 217.333 247.546 218.185 246.517 218.801C245.488 219.416 244.399 219.998 243.328 220.606Z" fill="#030319"/>
<path d="M251.392 177.193C251.351 184.956 251.96 192.71 253.214 200.371C253.416 201.704 253.635 203.028 253.905 204.352C255.896 214.136 256.056 216.625 256.056 216.625H248.06C248.06 216.625 242.156 188.917 239.963 182.608C238.304 177.826 237.01 172.926 236.091 167.949C235.733 165.59 236.025 163.179 236.935 160.973C237.243 160.104 237.684 159.287 238.242 158.553C239.329 157.353 240.689 156.433 242.206 155.87C245.435 154.41 248.928 153.624 252.471 153.559C252.876 153.525 253.281 153.613 253.635 153.812C253.862 153.998 254.041 154.235 254.158 154.504C255.196 156.613 255.002 159.092 254.681 161.42C254.542 162.713 254.259 163.986 253.838 165.216C253.365 166.473 252.623 167.611 252.193 168.885C251.827 170.111 251.612 171.377 251.552 172.655C251.501 174.165 251.425 175.675 251.392 177.193Z" fill="#4CD080"/>
<path d="M231.351 171.07C231.52 172.078 231.585 173.101 231.545 174.123C231.512 175.955 231.571 177.788 231.722 179.614C232.169 188.31 233.485 196.972 233.494 205.676C233.494 213.099 233.249 220.859 233.249 220.859C233.249 220.859 239.718 222.849 241.211 221.356L243.699 185.509C244.079 182.802 244.661 180.052 244.855 177.328C245.024 174.958 245.074 172.95 245.96 170.673C246.955 168.143 248.372 165.756 249.14 163.124C249.636 161.439 249.85 159.683 249.772 157.928C249.797 157.39 249.649 156.859 249.351 156.41C249.056 156.105 248.695 155.871 248.296 155.727C243.817 153.737 239.17 151.712 234.27 151.754C233.874 151.722 233.478 151.807 233.131 151.999C232.801 152.272 232.562 152.64 232.448 153.053C230.645 157.811 230.091 162.95 230.837 167.982C231.031 169.071 231.199 170.066 231.351 171.07Z" fill="#4CD080"/>
<path d="M207.195 109.97C207.001 108.831 207.026 107.642 206.925 106.486C206.92 106.033 206.798 105.588 206.571 105.196C206.449 105.004 206.266 104.86 206.051 104.788C205.835 104.715 205.602 104.72 205.39 104.799C204.867 105.061 204.85 105.778 204.867 106.36C204.884 106.942 204.732 107.684 204.158 107.794C203.942 107.815 203.725 107.77 203.534 107.667C203.248 107.514 203.002 107.296 202.814 107.031C202.627 106.766 202.504 106.461 202.454 106.14C202.404 105.761 202.454 105.364 202.387 104.985C202.168 103.888 200.751 104.074 200.093 104.647C199.705 105.022 199.39 105.465 199.165 105.955C198.688 106.784 198.339 107.679 198.128 108.612C197.427 112.416 202.016 113.234 203.956 115.663C204.235 116.04 204.545 116.393 204.884 116.717C205.213 117 205.611 117.191 206.037 117.27C206.464 117.35 206.904 117.317 207.313 117.173C207.72 117.023 208.08 116.767 208.355 116.432C208.631 116.097 208.813 115.695 208.882 115.267C209.109 113.85 208.08 112.576 207.574 111.226C207.408 110.82 207.281 110.4 207.195 109.97Z" fill="#FCD4D0"/>
<path d="M240.182 100.084C240.261 100.191 240.321 100.311 240.359 100.439C240.418 100.697 240.418 100.965 240.359 101.223C240.017 102.748 239.783 104.296 239.659 105.854C239.594 106.29 239.677 106.736 239.895 107.119C240.244 107.489 240.72 107.713 241.228 107.743C241.967 107.861 242.715 107.912 243.463 107.895C243.758 107.895 244.121 107.895 244.307 108.139C244.369 108.25 244.404 108.375 244.408 108.502C244.443 109.083 244.33 109.664 244.079 110.189C243.925 110.443 243.849 110.736 243.86 111.032C243.919 111.572 244.703 111.522 245.108 111.547C246.643 111.623 248.187 111.631 249.722 111.547C249.987 111.558 250.251 111.503 250.489 111.387C250.903 111.142 250.995 110.594 251.113 110.13C251.636 107.979 253.298 106.309 254.192 104.285C254.652 103.206 254.895 102.047 254.905 100.875C254.915 99.7021 254.693 98.5391 254.251 97.4528C253.826 96.4178 253.221 95.4667 252.463 94.6441C251.771 93.8765 250.439 93.7163 249.477 93.5138C247.79 93.1596 245.918 93.0584 244.416 93.9609C242.729 94.973 241.953 97.0479 240.258 98.0179C239.963 98.1866 239.6 98.3553 239.499 98.6842C239.473 98.8513 239.488 99.0222 239.542 99.1823C239.596 99.3424 239.689 99.487 239.811 99.6036C239.921 99.7723 240.064 99.9157 240.182 100.084Z" fill="#FCD4D0"/>
<path d="M244.88 93.3704C244.918 93.6318 244.998 93.8853 245.116 94.1211C245.656 95.2429 246.365 94.9646 247.335 95.108C248.516 95.3188 249.283 96.643 249.528 97.7227C249.738 99.0316 249.695 100.369 249.401 101.662C249.661 101.448 249.981 101.32 250.317 101.298C250.653 101.275 250.987 101.358 251.274 101.535C251.552 101.729 251.769 101.999 251.898 102.314C252.026 102.628 252.062 102.973 251.999 103.306C251.929 103.642 251.768 103.951 251.532 104.2C251.297 104.448 250.997 104.627 250.666 104.715C250.337 104.799 249.949 104.816 249.747 105.086C249.637 105.281 249.59 105.505 249.612 105.727C249.612 107.161 249.671 108.721 250.582 109.835C251.847 109.708 252.809 108.696 253.753 107.853C255.094 106.655 256.63 105.676 257.92 104.42C259.288 103.219 260.138 101.535 260.29 99.7217C260.332 96.8117 257.76 94.5681 256.815 91.8269C256.646 91.2097 256.423 90.6085 256.149 90.0304C255.896 89.6334 255.563 89.2937 255.171 89.0332C254.779 88.7727 254.337 88.5971 253.873 88.5176C253.409 88.4382 252.933 88.4567 252.477 88.572C252.021 88.6872 251.594 88.8967 251.223 89.1869C250.543 88.7396 249.747 88.5012 248.933 88.5012C248.119 88.5012 247.323 88.7396 246.643 89.1869C246.02 89.679 245.532 90.3206 245.224 91.0521C244.916 91.7835 244.797 92.581 244.88 93.3704Z" fill="#030319"/>
<path d="M257.228 125.371C256.88 128.089 256.767 130.832 256.891 133.57C256.967 136.243 257.093 138.9 257.203 141.574C256.689 143.877 256.115 146.179 255.516 148.456C255.136 150.317 254.509 152.118 253.652 153.812C253.22 154.627 252.649 155.361 251.965 155.98C251.292 156.572 250.525 157.048 249.696 157.389C247.749 158.11 245.668 158.397 243.598 158.232C242.139 158.175 240.69 157.954 239.28 157.574V157.574C237.467 157.122 235.784 156.256 234.362 155.044C233.648 154.406 233.024 153.674 232.507 152.868C231.268 150.882 230.519 148.63 230.322 146.297C229.898 142.469 230.393 138.594 231.765 134.995C231.84 134.784 231.925 134.582 232.009 134.371C232.591 132.886 233.173 131.402 233.772 129.917C233.772 129.917 233.772 129.875 233.772 129.858C233.865 129.622 233.957 129.403 234.042 129.175L234.092 129.049L233.763 129.184L233.418 129.31C233.308 129.354 233.195 129.391 233.08 129.42C232.836 129.512 232.574 129.58 232.33 129.647L231.486 129.858C231.005 129.96 230.516 130.052 230.027 130.111L229.361 130.187C223.229 130.727 216.54 128.247 211.412 125.506C209.738 124.655 208.207 123.548 206.874 122.225C206.596 121.93 206.335 121.62 206.09 121.297C205.476 120.489 205.023 119.569 204.757 118.59C204.572 117.997 204.572 117.361 204.757 116.768C204.769 116.744 204.783 116.722 204.799 116.7C204.984 116.295 205.241 115.926 205.558 115.612C206.338 114.759 207.163 113.948 208.03 113.183L208.3 112.947C208.532 112.743 208.805 112.591 209.101 112.5C209.392 112.435 209.694 112.434 209.986 112.498C210.277 112.562 210.551 112.69 210.788 112.871C211.219 113.172 211.62 113.514 211.985 113.892C214.327 116.124 217.104 117.849 220.144 118.958C223.183 120.067 226.418 120.536 229.647 120.336C231.42 120.261 233.162 119.843 234.776 119.104C236.191 118.337 237.506 117.396 238.689 116.304C239.759 115.428 240.778 114.493 241.743 113.504C241.996 113.234 242.257 112.955 242.485 112.66C242.713 112.365 242.856 112.205 243.033 111.977L243.252 111.69C243.445 111.398 243.698 111.15 243.995 110.965V110.965C244.42 110.77 244.885 110.677 245.353 110.695C247.183 110.619 249.173 110.273 250.978 110.315H251.172C251.348 110.322 251.523 110.342 251.695 110.374C252.32 110.473 252.905 110.745 253.382 111.159C253.97 111.723 254.506 112.339 254.985 112.998C256.108 114.228 256.989 115.659 257.583 117.215C258.46 119.796 257.633 122.621 257.228 125.371Z" fill="#FFAE58"/>
<path d="M259.337 125.093C259.331 128.018 259.108 130.939 258.671 133.831C258.291 136.437 257.827 139.01 257.203 141.574C257.093 138.9 256.967 136.243 256.891 133.57C256.767 130.832 256.88 128.089 257.228 125.371C257.633 122.63 258.46 119.796 257.608 117.164C257.014 115.608 256.133 114.177 255.01 112.947C254.531 112.288 253.995 111.673 253.408 111.108C255.094 112.382 256.427 114.752 257.54 116.169C259.438 118.657 259.32 122.124 259.337 125.093Z" fill="#FFAE58"/>
<path opacity="0.1" d="M259.337 125.093C259.331 128.018 259.108 130.939 258.671 133.831C258.291 136.437 257.827 139.01 257.203 141.574C257.093 138.9 256.967 136.243 256.891 133.57C256.767 130.832 256.88 128.089 257.228 125.371C257.633 122.63 258.46 119.796 257.608 117.164C257.014 115.608 256.133 114.177 255.01 112.947C254.531 112.288 253.995 111.673 253.408 111.108C255.094 112.382 256.427 114.752 257.54 116.169C259.438 118.657 259.32 122.124 259.337 125.093Z" fill="#020202"/>
<path opacity="0.1" d="M257.228 125.371C256.88 128.089 256.767 130.832 256.891 133.57C256.967 136.243 257.093 138.9 257.203 141.574C256.689 143.877 256.115 146.179 255.516 148.456C255.136 150.317 254.509 152.118 253.652 153.812C253.22 154.627 252.649 155.361 251.965 155.98C251.292 156.572 250.525 157.048 249.696 157.389C247.749 158.11 245.668 158.397 243.598 158.232C242.139 158.175 240.69 157.954 239.28 157.574V157.574C237.467 157.122 235.784 156.256 234.362 155.044C233.648 154.406 233.024 153.674 232.507 152.868C231.268 150.882 230.519 148.63 230.322 146.297C229.898 142.469 230.393 138.594 231.765 134.995C231.84 134.784 231.925 134.582 232.009 134.371C232.675 132.918 233.263 131.432 233.772 129.917C233.772 129.917 233.772 129.875 233.772 129.858C233.839 129.605 233.898 129.369 233.957 129.125C233.895 129.152 233.83 129.172 233.763 129.184L233.418 129.31C233.308 129.354 233.195 129.391 233.08 129.42C232.836 129.512 232.574 129.58 232.33 129.647L231.486 129.858C231.005 129.96 230.516 130.052 230.027 130.111L229.361 130.187C223.144 130.82 216.768 128.391 211.412 125.506C209.738 124.655 208.207 123.548 206.874 122.225C206.596 121.93 206.335 121.62 206.09 121.297C205.476 120.489 205.023 119.569 204.757 118.59C204.572 117.997 204.572 117.361 204.757 116.768C204.769 116.744 204.783 116.722 204.799 116.7C204.984 116.295 205.241 115.926 205.558 115.612C206.338 114.759 207.163 113.948 208.03 113.183L208.3 112.947C208.532 112.743 208.805 112.591 209.101 112.5C209.392 112.435 209.694 112.434 209.986 112.498C210.277 112.562 210.551 112.69 210.788 112.871C211.219 113.172 211.62 113.514 211.985 113.892C214.327 116.124 217.104 117.849 220.144 118.958C223.183 120.067 226.418 120.536 229.647 120.336C231.42 120.261 233.162 119.843 234.776 119.104C236.191 118.337 237.506 117.396 238.689 116.304C239.759 115.428 240.778 114.493 241.743 113.504C241.996 113.234 242.257 112.955 242.485 112.66C242.713 112.365 242.856 112.205 243.033 111.977L243.252 111.69C243.445 111.398 243.698 111.15 243.995 110.965V110.965C244.42 110.77 244.885 110.677 245.353 110.695C247.183 110.619 249.173 110.273 250.978 110.315H251.172C251.348 110.322 251.523 110.342 251.695 110.374C252.308 110.511 252.883 110.778 253.382 111.159C253.97 111.723 254.506 112.339 254.985 112.998C256.108 114.228 256.989 115.659 257.583 117.215C258.46 119.796 257.633 122.621 257.228 125.371Z" fill="#020202"/>
<path d="M228.416 225.321C227.613 225.685 226.949 226.301 226.527 227.075C226.438 227.246 226.412 227.443 226.451 227.632C226.512 227.771 226.603 227.895 226.718 227.994C226.834 228.094 226.97 228.166 227.117 228.205C229.243 229.049 231.646 228.897 233.907 228.492C236.136 227.946 238.413 227.615 240.705 227.505C240.898 227.536 241.094 227.524 241.282 227.472C241.47 227.419 241.644 227.327 241.793 227.201C241.934 226.99 242.003 226.738 241.987 226.484C242.079 224.494 241.734 222.507 240.975 220.665C241.026 220.783 234.961 221.019 234.447 221.382C233.477 222.048 232.675 222.9 231.646 223.516C230.617 224.131 229.487 224.679 228.416 225.321Z" fill="#030319"/>
<path d="M218.261 122.917C214.221 121.474 210.105 120.049 206.883 117.147C206.511 116.881 206.254 116.483 206.166 116.034C206.194 115.756 206.285 115.489 206.431 115.251C206.577 115.013 206.775 114.811 207.009 114.659C207.586 114.078 208.242 113.581 208.957 113.183C209.316 112.984 209.712 112.862 210.12 112.826C210.528 112.79 210.94 112.84 211.328 112.972C211.868 113.245 212.354 113.613 212.761 114.06C215.728 116.73 219.378 118.523 223.305 119.239C227.126 120.083 231.334 120.133 235.003 118.649C237.129 117.805 241.751 112.213 243.817 113.031C245.884 113.85 244.973 117.974 243.969 119.256C241.802 122.014 236.311 123.322 233.004 123.946C228.086 124.92 222.996 124.564 218.261 122.917V122.917Z" fill="#FFAE58"/>
<path d="M250.43 113.799C250.896 113.58 251.308 113.263 251.64 112.87C251.972 112.477 252.215 112.017 252.353 111.522C251.244 111.293 250.106 111.236 248.979 111.353L245.749 111.513L243.623 111.623C242.299 111.699 242.274 112.281 242.78 113.192C243.016 113.622 243.623 113.968 243.877 114.432C244.13 114.895 244.172 115.393 244.475 115.747C245.319 116.759 245.555 116.186 246.643 115.528C247.731 114.87 249.19 114.474 250.43 113.799Z" fill="#FFAE58"/>
<path d="M198.052 36.1589L235.965 32.1778L208.856 42.7969L198.052 36.1589Z" fill="#4CD080"/>
<path d="M235.965 32.1778L213.369 54.0401L208.856 42.7969L235.965 32.1778Z" fill="#4CD080"/>
<path d="M235.965 32.1778L213.369 54.0401L208.856 42.7969L235.965 32.1778Z" fill="url(#paint8_linear_1_650)"/>
<path d="M204.386 54.7908L208.856 42.7969L235.965 32.1778L204.386 54.7908Z" fill="#4CD080"/>
<path d="M235.965 32.1778L208.856 40.4774L198.052 36.1589L208.856 42.7969L235.965 32.1778Z" fill="url(#paint9_linear_1_650)"/>
<defs>
<linearGradient id="paint0_linear_1_650" x1="192.67" y1="105.078" x2="125.456" y2="352.505" gradientUnits="userSpaceOnUse">
<stop offset="0.01"/>
<stop offset="0.13" stop-opacity="0.69"/>
<stop offset="0.25" stop-opacity="0.32"/>
<stop offset="1" stop-opacity="0"/>
</linearGradient>
<linearGradient id="paint1_linear_1_650" x1="52.4638" y1="73.5383" x2="194.351" y2="185.815" gradientUnits="userSpaceOnUse">
<stop stop-color="white"/>
<stop offset="1" stop-color="#CBCBCB"/>
</linearGradient>
<linearGradient id="paint2_linear_1_650" x1="8653.82" y1="4700.53" x2="8398.36" y2="6566.44" gradientUnits="userSpaceOnUse">
<stop offset="0.01"/>
<stop offset="0.13" stop-opacity="0.69"/>
<stop offset="0.25" stop-opacity="0.32"/>
<stop offset="1" stop-opacity="0"/>
</linearGradient>
<linearGradient id="paint3_linear_1_650" x1="1034.74" y1="390.723" x2="1037.44" y2="419.945" gradientUnits="userSpaceOnUse">
<stop stop-color="white"/>
<stop offset="1" stop-color="#CBCBCB"/>
</linearGradient>
<linearGradient id="paint4_linear_1_650" x1="471.933" y1="513.061" x2="475.571" y2="536.166" gradientUnits="userSpaceOnUse">
<stop stop-color="white"/>
<stop offset="1" stop-color="#CBCBCB"/>
</linearGradient>
<linearGradient id="paint5_linear_1_650" x1="12702" y1="10650.4" x2="19197.9" y2="12581.9" gradientUnits="userSpaceOnUse">
<stop stop-color="white"/>
<stop offset="1" stop-color="#CBCBCB"/>
</linearGradient>
<linearGradient id="paint6_linear_1_650" x1="220.901" y1="105.01" x2="127.969" y2="123.263" gradientUnits="userSpaceOnUse">
<stop offset="0.01" stop-color="white"/>
<stop offset="1" stop-color="white" stop-opacity="0"/>
</linearGradient>
<linearGradient id="paint7_linear_1_650" x1="1680.32" y1="1765.03" x2="1745.28" y2="1794.53" gradientUnits="userSpaceOnUse">
<stop stop-color="white"/>
<stop offset="1" stop-color="#CBCBCB"/>
</linearGradient>
<linearGradient id="paint8_linear_1_650" x1="7048.91" y1="816.599" x2="7830.13" y2="1867.08" gradientUnits="userSpaceOnUse">
<stop offset="0.01"/>
<stop offset="0.13" stop-opacity="0.69"/>
<stop offset="0.25" stop-opacity="0.32"/>
<stop offset="1" stop-opacity="0"/>
</linearGradient>
<linearGradient id="paint9_linear_1_650" x1="9952.39" y1="307.743" x2="9952.39" y2="767.338" gradientUnits="userSpaceOnUse">
<stop offset="0.01"/>
<stop offset="0.13" stop-opacity="0.69"/>
<stop offset="0.25" stop-opacity="0.32"/>
<stop offset="1" stop-opacity="0"/>
</linearGradient>
</defs>
</svg>
