<svg width="301" height="203" viewBox="0 0 301 203" fill="none" xmlns="http://www.w3.org/2000/svg">
<path d="M249.289 8.96713V26.5446H241.587V8.72051H203.922V26.5446H196.22V8.96713L204.231 0.95813H241.277L249.289 8.96713Z" fill="url(#paint0_linear_1_380)"/>
<path d="M246.191 26.5453V8.96686L238.179 0.957764H201.133L193.122 8.96686V26.5453H162.306L142.321 200.346H276.693V26.5453H246.191ZM238.489 26.5453H200.824V8.72013H238.489V26.5453Z" fill="#4CD080"/>
<path d="M300.775 200.346H276.693V26.5447H280.79L300.775 200.346Z" fill="url(#paint1_linear_1_380)"/>
<path d="M241.825 84.0435C241.825 97.1489 233.729 108.266 222.509 112.164V90.8559C222.509 88.9201 223.466 87.1041 225.078 85.8804C226.772 84.5949 227.893 82.3534 227.893 79.8032C227.893 75.8116 225.147 72.5792 221.76 72.5792C218.374 72.5792 215.628 75.8116 215.628 79.8032C215.628 82.3534 216.749 84.5949 218.443 85.8804C220.055 87.1041 221.012 88.9201 221.012 90.8559V112.637C218.67 113.301 216.207 113.655 213.666 113.655C211.143 113.655 208.698 113.306 206.37 112.651V93.6858C206.37 91.7499 207.328 89.9339 208.94 88.7103C209.881 87.9961 210.646 86.9842 211.14 85.7895C211.534 84.8366 211.755 83.7658 211.755 82.634V73.3274C211.755 72.9138 211.42 72.5792 211.006 72.5792H211.005C210.592 72.5792 210.257 72.9138 210.257 73.3274V83.4172C210.257 83.9536 210.04 84.439 209.688 84.7906C209.336 85.1423 208.851 85.36 208.314 85.36C207.241 85.36 206.37 84.49 206.37 83.4172V73.3274C206.37 73.1206 206.287 72.9338 206.152 72.798C206.016 72.6631 205.829 72.5792 205.622 72.5792C205.208 72.5792 204.874 72.9138 204.874 73.3274V83.4172C204.874 84.49 204.004 85.36 202.931 85.36H202.93C201.857 85.36 200.986 84.49 200.986 83.4172V73.3274C200.986 73.1206 200.902 72.9338 200.768 72.798C200.632 72.6631 200.445 72.5792 200.238 72.5792C199.824 72.5792 199.489 72.9138 199.489 73.3274V82.634C199.489 83.7658 199.71 84.8366 200.104 85.7895C200.598 86.9842 201.362 87.9961 202.303 88.7103C203.916 89.9339 204.874 91.7499 204.874 93.6858V112.182C193.628 108.299 185.508 97.1679 185.508 84.0435C185.508 67.6897 198.114 54.4314 213.666 54.4314C229.218 54.4314 241.825 67.6897 241.825 84.0435Z" fill="white"/>
<path d="M149.187 98.7744L142.387 157.923H49.754L56.731 97.2421H147.821C148.643 97.242 149.281 97.9581 149.187 98.7744Z" fill="#4CD080"/>
<path d="M135.204 97.242C134.105 97.242 133.181 98.0659 133.055 99.1573L132.352 105.27C131.804 110.039 127.764 113.64 122.961 113.64H49.3584C43.7102 113.64 39.3226 108.721 39.9676 103.112L40.4741 98.708C40.5701 97.8726 41.2777 97.242 42.1189 97.242H135.204Z" fill="#AFFFCF"/>
<path d="M106.531 198.925C122.461 198.925 135.375 185.761 135.375 169.523C135.375 153.284 122.461 140.12 106.531 140.12C90.6006 140.12 77.6865 153.284 77.6865 169.523C77.6865 185.761 90.6006 198.925 106.531 198.925Z" fill="#105D38"/>
<path d="M101.435 140.12C85.5044 140.12 72.5898 153.284 72.5898 169.522C72.5898 185.761 85.5044 198.925 101.435 198.925C117.365 198.925 130.279 185.761 130.279 169.522C130.279 153.284 117.365 140.12 101.435 140.12ZM101.435 179.64C96.0717 179.64 91.7249 175.208 91.7249 169.742C91.7249 164.276 96.0717 159.844 101.435 159.844C106.797 159.844 111.145 164.276 111.145 169.742C111.145 175.208 106.797 179.64 101.435 179.64Z" fill="#FFD2A6"/>
<path d="M105.693 145.314H103.231C102.957 145.314 102.734 145.091 102.734 144.816V144.782C102.734 144.508 102.957 144.285 103.231 144.285H105.693C105.968 144.285 106.191 144.508 106.191 144.782V144.816C106.191 145.091 105.968 145.314 105.693 145.314Z" fill="white"/>
<path d="M109.662 155.833H107.2C106.925 155.833 106.703 155.61 106.703 155.336V155.302C106.703 155.027 106.925 154.805 107.2 154.805H109.662C109.937 154.805 110.159 155.027 110.159 155.302V155.336C110.159 155.61 109.937 155.833 109.662 155.833Z" fill="#105D38"/>
<path d="M89.1172 149.56L87.0353 150.874C86.8031 151.021 86.4959 150.952 86.3493 150.719L86.3311 150.691C86.1844 150.458 86.2539 150.151 86.4861 150.005L88.568 148.691C88.8002 148.544 89.1074 148.614 89.254 148.846L89.2722 148.874C89.4189 149.107 89.3494 149.414 89.1172 149.56Z" fill="white"/>
<path d="M121.183 154.568L119.84 156.63C119.69 156.861 119.382 156.926 119.152 156.776L119.123 156.757C118.893 156.607 118.828 156.299 118.978 156.069L120.321 154.007C120.471 153.777 120.779 153.712 121.009 153.862L121.038 153.88C121.268 154.03 121.333 154.338 121.183 154.568Z" fill="white"/>
<path d="M100.596 154.274L98.5142 155.588C98.282 155.735 97.9748 155.665 97.8282 155.433L97.8101 155.404C97.6634 155.172 97.7328 154.865 97.965 154.719L100.047 153.404C100.279 153.258 100.586 153.327 100.733 153.559L100.751 153.588C100.898 153.82 100.828 154.127 100.596 154.274Z" fill="white"/>
<path d="M95.3467 147.443L93.9113 145.444C93.7512 145.22 93.8023 144.91 94.0255 144.75L94.0532 144.73C94.2764 144.57 94.5871 144.621 94.7472 144.844L96.1826 146.844C96.3427 147.067 96.2916 147.378 96.0684 147.538L96.0407 147.558C95.8175 147.718 95.5068 147.666 95.3467 147.443Z" fill="#105D38"/>
<path d="M115.278 155.111L113.842 153.112C113.682 152.888 113.733 152.578 113.957 152.418L113.984 152.398C114.208 152.238 114.518 152.289 114.678 152.512L116.114 154.512C116.274 154.735 116.223 155.046 116 155.206L115.972 155.226C115.749 155.386 115.438 155.334 115.278 155.111Z" fill="#74B9FF"/>
<path d="M84.3468 155.889L82.4324 154.341C82.2188 154.169 82.1858 153.856 82.3584 153.642L82.3798 153.616C82.5526 153.402 82.8657 153.369 83.0792 153.542L84.9936 155.09C85.2072 155.262 85.2403 155.575 85.0676 155.789L85.0462 155.815C84.8735 156.029 84.5604 156.062 84.3468 155.889Z" fill="#74B9FF"/>
<path d="M114.047 148.891L112.133 147.344C111.919 147.171 111.886 146.858 112.059 146.644L112.08 146.618C112.253 146.405 112.566 146.371 112.78 146.544L114.694 148.092C114.908 148.265 114.941 148.578 114.768 148.791L114.747 148.818C114.574 149.031 114.261 149.064 114.047 148.891Z" fill="white"/>
<path d="M91.5382 155.291L91.9574 152.866C92.0042 152.595 92.2615 152.414 92.5322 152.461L92.5657 152.466C92.8364 152.513 93.0179 152.77 92.9711 153.041L92.5519 155.466C92.5051 155.737 92.2478 155.918 91.9771 155.872L91.9436 155.866C91.6729 155.819 91.4915 155.562 91.5382 155.291Z" fill="#74B9FF"/>
<path d="M88.5497 163.867L88.9689 161.442C89.0157 161.171 89.273 160.99 89.5437 161.036L89.5772 161.042C89.8479 161.089 90.0293 161.346 89.9826 161.617L89.5634 164.042C89.5166 164.313 89.2593 164.494 88.9886 164.447L88.9551 164.442C88.6844 164.395 88.5029 164.138 88.5497 163.867Z" fill="#74B9FF"/>
<path d="M99.6106 149.418L101.545 147.895C101.76 147.725 102.073 147.762 102.243 147.978L102.264 148.004C102.434 148.22 102.397 148.533 102.181 148.703L100.247 150.226C100.032 150.396 99.7189 150.359 99.5488 150.143L99.5277 150.116C99.3578 149.901 99.3948 149.588 99.6106 149.418Z" fill="#74B9FF"/>
<path d="M107.337 150.542L107.756 148.117C107.803 147.846 108.061 147.665 108.331 147.711L108.365 147.717C108.635 147.764 108.817 148.021 108.77 148.292L108.351 150.717C108.304 150.987 108.047 151.169 107.776 151.122L107.743 151.116C107.472 151.07 107.29 150.812 107.337 150.542Z" fill="#74B9FF"/>
<path d="M118.838 185.249L120.303 183.27C120.466 183.049 120.778 183.003 120.999 183.166L121.026 183.186C121.247 183.35 121.293 183.661 121.13 183.882L119.665 185.86C119.502 186.081 119.19 186.127 118.97 185.964L118.942 185.944C118.721 185.781 118.675 185.469 118.838 185.249Z" fill="white"/>
<path d="M109.164 181.496L110.629 179.518C110.792 179.297 111.104 179.251 111.324 179.414L111.352 179.434C111.573 179.598 111.619 179.909 111.456 180.13L109.991 182.108C109.828 182.329 109.516 182.375 109.295 182.212L109.268 182.192C109.047 182.028 109.001 181.717 109.164 181.496Z" fill="#105D38"/>
<path d="M125.284 169.403L125.466 166.949C125.486 166.675 125.725 166.469 125.999 166.49L126.033 166.492C126.307 166.512 126.513 166.751 126.493 167.024L126.311 169.479C126.291 169.753 126.052 169.958 125.778 169.938L125.744 169.936C125.47 169.915 125.264 169.677 125.284 169.403Z" fill="white"/>
<path d="M111.709 161.676L111.89 159.221C111.911 158.947 112.149 158.742 112.424 158.762L112.457 158.764C112.732 158.785 112.937 159.023 112.917 159.297L112.735 161.752C112.715 162.025 112.476 162.231 112.202 162.211L112.168 162.208C111.894 162.188 111.688 161.949 111.709 161.676Z" fill="white"/>
<path d="M103.625 193.809L102.766 191.503C102.67 191.245 102.801 190.959 103.058 190.863L103.09 190.851C103.347 190.756 103.634 190.886 103.73 191.144L104.589 193.45C104.685 193.708 104.554 193.994 104.296 194.09L104.264 194.102C104.007 194.197 103.721 194.067 103.625 193.809Z" fill="white"/>
<path d="M114.665 175.822L114.847 173.368C114.867 173.094 115.106 172.888 115.38 172.909L115.414 172.911C115.688 172.931 115.894 173.17 115.874 173.444L115.692 175.898C115.671 176.172 115.433 176.378 115.159 176.357L115.125 176.355C114.851 176.334 114.645 176.096 114.665 175.822Z" fill="white"/>
<path d="M123.281 175.668L125.743 175.704C126.018 175.708 126.237 175.934 126.233 176.209L126.232 176.243C126.228 176.517 126.002 176.736 125.728 176.732L123.266 176.696C122.991 176.692 122.772 176.466 122.776 176.192L122.776 176.158C122.78 175.883 123.006 175.664 123.281 175.668Z" fill="#105D38"/>
<path d="M99.5065 184.033L101.968 184.069C102.243 184.073 102.462 184.299 102.458 184.574L102.458 184.608C102.454 184.882 102.228 185.102 101.953 185.098L99.4912 185.061C99.2166 185.057 98.9973 184.831 99.0013 184.557L99.0018 184.523C99.0059 184.248 99.2318 184.029 99.5065 184.033Z" fill="#105D38"/>
<path d="M105.258 187.121L107.72 187.158C107.994 187.162 108.214 187.388 108.21 187.662L108.209 187.696C108.205 187.971 107.979 188.19 107.705 188.186L105.243 188.149C104.968 188.145 104.749 187.919 104.753 187.645L104.753 187.611C104.757 187.336 104.983 187.117 105.258 187.121Z" fill="#74B9FF"/>
<path d="M123.033 161.805L125.416 161.187C125.682 161.118 125.953 161.278 126.022 161.544L126.031 161.577C126.1 161.843 125.94 162.114 125.674 162.183L123.291 162.8C123.025 162.869 122.753 162.71 122.685 162.444L122.676 162.411C122.607 162.145 122.767 161.874 123.033 161.805Z" fill="#74B9FF"/>
<path d="M114.675 164.625L117.059 164.007C117.325 163.938 117.596 164.098 117.665 164.364L117.674 164.397C117.743 164.662 117.583 164.934 117.317 165.003L114.933 165.62C114.668 165.689 114.396 165.529 114.327 165.264L114.319 165.231C114.25 164.965 114.409 164.694 114.675 164.625Z" fill="#74B9FF"/>
<path d="M110.991 189.833L113.375 189.215C113.641 189.146 113.912 189.306 113.981 189.572L113.99 189.605C114.059 189.87 113.899 190.142 113.633 190.21L111.25 190.828C110.984 190.897 110.712 190.737 110.643 190.471L110.635 190.439C110.566 190.173 110.726 189.901 110.991 189.833Z" fill="white"/>
<path d="M119.235 167.939L120.936 169.719C121.126 169.917 121.119 170.232 120.92 170.422L120.896 170.445C120.697 170.635 120.382 170.628 120.193 170.429L118.492 168.649C118.302 168.451 118.309 168.136 118.508 167.947L118.532 167.923C118.731 167.733 119.046 167.74 119.235 167.939Z" fill="#74B9FF"/>
<path d="M119.157 177.919L119.232 180.379C119.24 180.654 119.024 180.883 118.749 180.891L118.715 180.892C118.44 180.901 118.211 180.685 118.203 180.41L118.128 177.95C118.12 177.676 118.336 177.447 118.61 177.438L118.645 177.437C118.919 177.429 119.149 177.645 119.157 177.919Z" fill="#74B9FF"/>
<path d="M113.656 183.459L115.357 185.239C115.547 185.437 115.54 185.752 115.341 185.941L115.316 185.965C115.118 186.155 114.803 186.147 114.613 185.949L112.912 184.169C112.723 183.971 112.73 183.656 112.928 183.466L112.953 183.443C113.152 183.253 113.466 183.26 113.656 183.459Z" fill="#74B9FF"/>
<path d="M79.4734 176.888L80.5575 179.098C80.6784 179.345 80.5766 179.643 80.3299 179.763L80.2994 179.778C80.0527 179.899 79.7548 179.798 79.6338 179.551L78.5497 177.341C78.4288 177.095 78.5307 176.797 78.7773 176.676L78.8079 176.661C79.0545 176.54 79.3525 176.642 79.4734 176.888Z" fill="white"/>
<path d="M87.2546 170.026L88.3387 172.236C88.4596 172.483 88.3578 172.781 88.1111 172.901L88.0806 172.916C87.8339 173.037 87.536 172.935 87.415 172.689L86.3309 170.479C86.21 170.233 86.3119 169.935 86.5585 169.814L86.589 169.799C86.8357 169.678 87.1337 169.78 87.2546 170.026Z" fill="#105D38"/>
<path d="M90.5859 189.896L92.6829 191.186C92.9168 191.33 92.9897 191.636 92.8458 191.87L92.828 191.899C92.684 192.133 92.3777 192.206 92.1438 192.062L90.0468 190.772C89.8129 190.628 89.7399 190.322 89.8839 190.088L89.9017 190.059C90.0457 189.825 90.352 189.752 90.5859 189.896Z" fill="white"/>
<path d="M79.6815 159.273L82.1257 159.571C82.3984 159.604 82.5924 159.852 82.5592 160.124L82.5551 160.158C82.5218 160.431 82.2739 160.625 82.0013 160.592L79.5571 160.294C79.2844 160.261 79.0904 160.013 79.1236 159.74L79.1277 159.706C79.1609 159.434 79.4088 159.24 79.6815 159.273Z" fill="white"/>
<path d="M89.7658 177.518L91.8628 178.808C92.0967 178.952 92.1696 179.259 92.0256 179.492L92.0079 179.521C91.8639 179.755 91.5576 179.828 91.3237 179.684L89.2267 178.394C88.9928 178.25 88.9198 177.944 89.0638 177.71L89.0816 177.681C89.2256 177.447 89.5319 177.375 89.7658 177.518Z" fill="white"/>
<path d="M85.9416 185.237L84.7774 187.406C84.6475 187.648 84.346 187.739 84.104 187.609L84.074 187.593C83.832 187.463 83.741 187.162 83.8709 186.92L85.0352 184.751C85.1651 184.509 85.4666 184.418 85.7086 184.548L85.7386 184.564C85.9806 184.694 86.0715 184.996 85.9416 185.237Z" fill="#105D38"/>
<path d="M84.0539 163.972L82.8896 166.141C82.7597 166.383 82.4582 166.474 82.2162 166.344L82.1862 166.328C81.9442 166.198 81.8533 165.897 81.9832 165.655L83.1474 163.486C83.2773 163.244 83.5788 163.153 83.8208 163.283L83.8508 163.299C84.0928 163.429 84.1838 163.731 84.0539 163.972Z" fill="#74B9FF"/>
<path d="M98.3712 191.391L97.8239 193.791C97.7628 194.058 97.4962 194.226 97.2284 194.165L97.1952 194.157C96.9274 194.096 96.7598 193.83 96.8209 193.562L97.3682 191.162C97.4293 190.895 97.6959 190.727 97.9637 190.788L97.9968 190.796C98.2647 190.857 98.4322 191.123 98.3712 191.391Z" fill="#74B9FF"/>
<path d="M78.3236 167.128L77.7763 169.528C77.7153 169.796 77.4487 169.963 77.1809 169.902L77.1477 169.895C76.8799 169.834 76.7123 169.567 76.7734 169.299L77.3207 166.9C77.3817 166.632 77.6483 166.464 77.9161 166.525L77.9493 166.533C78.2171 166.594 78.3847 166.861 78.3236 167.128Z" fill="white"/>
<path d="M94.6679 185.2L92.3049 185.891C92.0413 185.969 91.765 185.818 91.6878 185.554L91.6782 185.521C91.6011 185.258 91.7522 184.982 92.0158 184.905L94.3788 184.213C94.6424 184.136 94.9186 184.287 94.9958 184.55L95.0054 184.583C95.0825 184.847 94.9315 185.123 94.6679 185.2Z" fill="#74B9FF"/>
<path d="M85.8383 180.541L83.6185 179.476C83.3709 179.357 83.2664 179.06 83.3854 178.812L83.4 178.782C83.5189 178.534 83.8159 178.43 84.0637 178.549L86.2835 179.614C86.5311 179.733 86.6355 180.03 86.5166 180.277L86.5019 180.308C86.383 180.555 86.0859 180.66 85.8383 180.541Z" fill="#74B9FF"/>
<path d="M83.6354 171.98L80.3178 172.951L80.6069 173.938L83.9244 172.967L83.6354 171.98Z" fill="#74B9FF"/>
<path d="M41.6598 126.569C24.9599 126.569 11.4218 140.37 11.4218 157.392C11.4218 174.415 24.9599 188.216 41.6598 188.216C58.3596 188.216 71.8978 174.415 71.8978 157.392C71.8978 140.37 58.3596 126.569 41.6598 126.569ZM41.6598 166.962C36.6002 166.962 32.4978 162.781 32.4978 157.623C32.4978 152.465 36.6003 148.283 41.6598 148.283C46.7202 148.283 50.8226 152.465 50.8226 157.623C50.8226 162.781 46.7202 166.962 41.6598 166.962Z" fill="#105D38"/>
<path d="M37.5628 126.569C20.863 126.569 7.32483 140.37 7.32483 157.392C7.32483 174.415 20.863 188.216 37.5628 188.216C54.2627 188.216 67.8008 174.415 67.8008 157.392C67.8008 140.37 54.2627 126.569 37.5628 126.569ZM37.5628 167.998C31.9419 167.998 27.3842 163.354 27.3842 157.623C27.3842 151.892 31.9419 147.246 37.5628 147.246C43.1847 147.246 47.7424 151.892 47.7424 157.623C47.7424 163.354 43.1847 167.998 37.5628 167.998Z" fill="#FFAE58"/>
<path d="M41.5813 132.919H38.8822C38.6075 132.919 38.3848 132.697 38.3848 132.422V132.318C38.3848 132.043 38.6075 131.821 38.8822 131.821H41.5814C41.8561 131.821 42.0787 132.043 42.0787 132.318V132.422C42.0786 132.697 41.856 132.919 41.5813 132.919Z" fill="white"/>
<path d="M57.5273 155.698H54.8281C54.5534 155.698 54.3308 155.475 54.3308 155.201V155.096C54.3308 154.822 54.5534 154.599 54.8281 154.599H57.5273C57.802 154.599 58.0246 154.822 58.0246 155.096V155.201C58.0246 155.475 57.802 155.698 57.5273 155.698Z" fill="#A9D8D5"/>
<path d="M63.6168 152.371L61.026 153.128C60.7624 153.205 60.4862 153.054 60.4091 152.79L60.3798 152.69C60.3028 152.426 60.4541 152.15 60.7177 152.073L63.3085 151.317C63.5721 151.24 63.8483 151.391 63.9254 151.654L63.9546 151.755C64.0317 152.018 63.8804 152.294 63.6168 152.371Z" fill="#105D38"/>
<path d="M23.8205 154.716H21.1213C20.8466 154.716 20.624 154.493 20.624 154.219V154.114C20.624 153.839 20.8466 153.617 21.1213 153.617H23.8205C24.0952 153.617 24.3179 153.839 24.3179 154.114V154.219C24.3179 154.493 24.0952 154.716 23.8205 154.716Z" fill="white"/>
<path d="M53.0878 151.391L50.4916 150.653C50.2274 150.578 50.0742 150.303 50.1494 150.039L50.1779 149.938C50.2531 149.674 50.5282 149.521 50.7924 149.596L53.3886 150.334C53.6528 150.409 53.806 150.684 53.7308 150.949L53.7023 151.049C53.627 151.313 53.3519 151.466 53.0878 151.391Z" fill="#74B9FF"/>
<path d="M15.6646 147.247H12.9654C12.6907 147.247 12.468 147.024 12.468 146.749V146.645C12.468 146.37 12.6907 146.148 12.9654 146.148H15.6646C15.9393 146.148 16.1619 146.37 16.1619 146.645V146.749C16.1618 147.024 15.9392 147.247 15.6646 147.247Z" fill="#74B9FF"/>
<path d="M44.5065 143.397H41.8073C41.5326 143.397 41.3099 143.174 41.3099 142.9V142.795C41.3099 142.521 41.5326 142.298 41.8073 142.298H44.5065C44.7812 142.298 45.0038 142.521 45.0038 142.795V142.9C45.0038 143.174 44.7811 143.397 44.5065 143.397Z" fill="#105D38"/>
<path d="M57.4369 140.602L55.0993 139.253C54.8615 139.115 54.78 138.811 54.9173 138.573L54.9695 138.483C55.1068 138.245 55.411 138.164 55.6489 138.301L57.9865 139.65C58.2244 139.787 58.3059 140.091 58.1686 140.329L58.1163 140.42C57.979 140.657 57.6749 140.739 57.4369 140.602Z" fill="#D5839A"/>
<path d="M25.293 137.734L23.0108 139.175C22.7785 139.322 22.4714 139.252 22.3248 139.02L22.2689 138.932C22.1222 138.699 22.1917 138.392 22.4239 138.246L24.7061 136.805C24.9384 136.659 25.2455 136.728 25.3921 136.96L25.448 137.049C25.5947 137.281 25.5252 137.588 25.293 137.734Z" fill="white"/>
<path d="M59.3818 144.76L57.9089 147.021C57.759 147.251 57.451 147.316 57.2208 147.166L57.1332 147.109C56.903 146.959 56.8379 146.651 56.9878 146.421L58.4607 144.16C58.6106 143.93 58.9187 143.865 59.1488 144.015L59.2364 144.072C59.4666 144.222 59.5317 144.529 59.3818 144.76Z" fill="white"/>
<path d="M37.1969 143.543L34.9147 144.984C34.6825 145.13 34.3753 145.061 34.2287 144.829L34.1728 144.74C34.0262 144.508 34.0956 144.201 34.3278 144.055L36.6101 142.614C36.8423 142.467 37.1495 142.537 37.2961 142.769L37.3519 142.857C37.4985 143.089 37.4292 143.396 37.1969 143.543Z" fill="white"/>
<path d="M29.6497 143.092L28.7166 140.56C28.6217 140.302 28.7536 140.016 29.0113 139.921L29.1094 139.885C29.3671 139.79 29.653 139.922 29.748 140.18L30.6812 142.712C30.7761 142.969 30.6442 143.255 30.3865 143.35L30.2883 143.386C30.0306 143.481 29.7447 143.349 29.6497 143.092Z" fill="#74B9FF"/>
<path d="M30.5108 135.223L28.9374 133.03C28.7773 132.807 28.8284 132.497 29.0516 132.337L29.1365 132.276C29.3597 132.116 29.6705 132.167 29.8305 132.39L31.404 134.582C31.5641 134.805 31.513 135.116 31.2898 135.276L31.2048 135.337C30.9816 135.497 30.6709 135.446 30.5108 135.223Z" fill="#105D38"/>
<path d="M53.4058 144.813L51.8323 142.621C51.6723 142.398 51.7233 142.087 51.9466 141.927L52.0315 141.866C52.2546 141.706 52.5654 141.757 52.7255 141.98L54.2989 144.173C54.459 144.396 54.408 144.707 54.1847 144.867L54.0998 144.927C53.8766 145.088 53.5659 145.036 53.4058 144.813Z" fill="#105D38"/>
<path d="M18.7636 143.372L16.6649 141.675C16.4514 141.503 16.4183 141.19 16.591 140.976L16.6567 140.895C16.8295 140.681 17.1426 140.648 17.3561 140.821L19.4548 142.518C19.6683 142.69 19.7014 143.003 19.5288 143.217L19.463 143.298C19.2903 143.512 18.9771 143.545 18.7636 143.372Z" fill="#A9D8D5"/>
<path d="M50.5001 136.764L48.4014 135.067C48.1879 134.894 48.1548 134.581 48.3275 134.368L48.3932 134.287C48.566 134.073 48.8791 134.04 49.0927 134.213L51.1914 135.909C51.405 136.082 51.438 136.395 51.2654 136.609L51.1996 136.69C51.0268 136.903 50.7137 136.937 50.5001 136.764Z" fill="#74B9FF"/>
<path d="M14.1536 154.951L12.483 152.832C12.3131 152.616 12.3501 152.304 12.5659 152.134L12.648 152.069C12.8638 151.899 13.1764 151.936 13.3465 152.152L15.0171 154.271C15.1871 154.487 15.15 154.799 14.9343 154.969L14.8521 155.034C14.6363 155.204 14.3236 155.167 14.1536 154.951Z" fill="#A9D8D5"/>
<path d="M23.5338 146.521L23.9934 143.862C24.0402 143.592 24.2975 143.41 24.5682 143.457L24.6712 143.475C24.9419 143.522 25.1234 143.779 25.0766 144.049L24.617 146.708C24.5703 146.979 24.313 147.16 24.0423 147.113L23.9392 147.096C23.6685 147.049 23.4871 146.792 23.5338 146.521Z" fill="#D5839A"/>
<path d="M33.9527 138.394L36.0728 136.724C36.2885 136.554 36.6012 136.591 36.7713 136.806L36.8359 136.888C37.0059 137.104 36.9688 137.417 36.7531 137.587L34.633 139.257C34.4173 139.427 34.1046 139.39 33.9345 139.174L33.8699 139.092C33.6999 138.876 33.737 138.563 33.9527 138.394Z" fill="#A9D8D5"/>
<path d="M17.4602 150.685L19.5803 149.015C19.796 148.846 20.1087 148.883 20.2788 149.098L20.3434 149.18C20.5134 149.396 20.4763 149.709 20.2606 149.879L18.1405 151.549C17.9248 151.718 17.6121 151.681 17.442 151.466L17.3774 151.384C17.2074 151.168 17.2445 150.855 17.4602 150.685Z" fill="#105D38"/>
<path d="M43.2976 138.539L43.7572 135.881C43.804 135.61 44.0613 135.429 44.332 135.475L44.435 135.493C44.7057 135.54 44.8872 135.797 44.8404 136.068L44.3808 138.727C44.3341 138.997 44.0768 139.179 43.8061 139.132L43.703 139.114C43.4323 139.067 43.2509 138.81 43.2976 138.539Z" fill="#D5839A"/>
<path d="M46.4808 146.783L48.2776 144.769C48.4604 144.565 48.7748 144.547 48.9797 144.729L49.0578 144.799C49.2627 144.982 49.2807 145.296 49.0979 145.501L47.3011 147.514C47.1182 147.719 46.8038 147.737 46.5989 147.554L46.5208 147.485C46.3159 147.302 46.2979 146.988 46.4808 146.783Z" fill="#A9D8D5"/>
<path d="M33.9662 182.357L36.6651 182.398C36.9397 182.402 37.1589 182.628 37.1547 182.903L37.1531 183.007C37.1489 183.282 36.9229 183.501 36.6483 183.497L33.9494 183.455C33.6748 183.451 33.4556 183.225 33.4598 182.951L33.4614 182.846C33.4656 182.572 33.6916 182.353 33.9662 182.357Z" fill="white"/>
<path d="M18.3697 159.338L21.0686 159.379C21.3432 159.383 21.5624 159.609 21.5582 159.883L21.5566 159.988C21.5524 160.263 21.3264 160.482 21.0518 160.477L18.3529 160.436C18.0783 160.432 17.8591 160.206 17.8633 159.932L17.8649 159.827C17.869 159.553 18.095 159.333 18.3697 159.338Z" fill="#A9D8D5"/>
<path d="M12.2302 162.571L14.8323 161.854C15.0971 161.781 15.3709 161.936 15.4439 162.201L15.4717 162.302C15.5448 162.566 15.3893 162.84 15.1245 162.913L12.5224 163.63C12.2575 163.703 11.9837 163.548 11.9107 163.283L11.8829 163.182C11.81 162.918 11.9655 162.644 12.2302 162.571Z" fill="#105D38"/>
<path d="M52.0575 160.834L54.7564 160.875C55.031 160.879 55.2502 161.105 55.246 161.38L55.2444 161.484C55.2402 161.759 55.0142 161.978 54.7396 161.973L52.0407 161.932C51.7661 161.928 51.5469 161.702 51.5511 161.428L51.5527 161.323C51.5568 161.049 51.7828 160.83 52.0575 160.834Z" fill="white"/>
<path d="M22.7428 163.711L25.3274 164.489C25.5904 164.568 25.7395 164.845 25.6603 165.108L25.6301 165.208C25.5509 165.471 25.2735 165.62 25.0105 165.541L22.4259 164.763C22.1629 164.684 22.0138 164.407 22.093 164.144L22.1232 164.044C22.2024 163.781 22.4798 163.632 22.7428 163.711Z" fill="#74B9FF"/>
<path d="M60.099 168.426L62.7978 168.468C63.0724 168.472 63.2917 168.698 63.2875 168.972L63.2859 169.077C63.2817 169.351 63.0557 169.57 62.7811 169.566L60.0822 169.525C59.8076 169.521 59.5884 169.295 59.5926 169.02L59.5942 168.916C59.5984 168.641 59.8244 168.422 60.099 168.426Z" fill="#74B9FF"/>
<path d="M31.2014 171.836L33.9002 171.877C34.1748 171.881 34.3941 172.107 34.3899 172.382L34.3883 172.486C34.3841 172.761 34.158 172.98 33.8834 172.976L31.1846 172.934C30.91 172.93 30.6907 172.704 30.6949 172.43L30.6965 172.325C30.7007 172.051 30.9267 171.832 31.2014 171.836Z" fill="#105D38"/>
<path d="M18.2295 174.433L20.5462 175.818C20.7819 175.959 20.8588 176.264 20.7179 176.5L20.6642 176.59C20.5232 176.825 20.218 176.902 19.9821 176.761L17.6654 175.377C17.4297 175.236 17.3528 174.93 17.4937 174.695L17.5474 174.605C17.6884 174.369 17.9938 174.293 18.2295 174.433Z" fill="#F6ACC1"/>
<path d="M50.326 177.791L52.6301 176.385C52.8645 176.242 53.1706 176.316 53.3137 176.55L53.3681 176.639C53.5112 176.874 53.4372 177.18 53.2027 177.323L50.8987 178.728C50.6643 178.872 50.3582 178.797 50.2151 178.563L50.1607 178.474C50.0176 178.24 50.0916 177.934 50.326 177.791Z" fill="white"/>
<path d="M16.3485 170.246L17.8557 168.008C18.0091 167.78 18.3181 167.72 18.546 167.873L18.6327 167.932C18.8605 168.085 18.921 168.394 18.7676 168.622L17.2604 170.86C17.107 171.088 16.7979 171.148 16.5701 170.995L16.4834 170.936C16.2555 170.783 16.1951 170.474 16.3485 170.246Z" fill="white"/>
<path d="M38.5121 171.801L40.8162 170.396C41.0506 170.253 41.3567 170.327 41.4998 170.561L41.5542 170.65C41.6973 170.885 41.6233 171.19 41.3889 171.334L39.0848 172.739C38.8504 172.882 38.5443 172.808 38.4012 172.574L38.3468 172.485C38.2037 172.25 38.2777 171.944 38.5121 171.801Z" fill="white"/>
<path d="M46.0515 172.367L46.946 174.913C47.037 175.172 46.9007 175.456 46.6415 175.547L46.5429 175.582C46.2838 175.673 45.9999 175.536 45.9088 175.277L45.0144 172.731C44.9234 172.472 45.0597 172.189 45.3189 172.098L45.4175 172.063C45.6767 171.972 45.9605 172.108 46.0515 172.367Z" fill="#74B9FF"/>
<path d="M45.0704 180.223L46.6102 182.439C46.7668 182.664 46.711 182.974 46.4855 183.131L46.3996 183.19C46.174 183.347 45.8641 183.291 45.7074 183.066L44.1676 180.85C44.011 180.624 44.0668 180.314 44.2924 180.158L44.3782 180.098C44.6038 179.941 44.9137 179.997 45.0704 180.223Z" fill="#105D38"/>
<path d="M22.3245 170.284L23.8643 172.5C24.0209 172.725 23.9651 173.035 23.7395 173.192L23.6537 173.251C23.4281 173.408 23.1182 173.352 22.9615 173.127L21.4217 170.911C21.265 170.685 21.3209 170.375 21.5464 170.219L21.6323 170.159C21.8579 170.003 22.1678 170.058 22.3245 170.284Z" fill="#105D38"/>
<path d="M56.9407 172.253L59.0133 173.982C59.2243 174.158 59.2525 174.471 59.0766 174.682L59.0096 174.762C58.8337 174.973 58.5201 175.001 58.3091 174.825L56.2365 173.097C56.0256 172.921 55.9973 172.607 56.1733 172.397L56.2402 172.316C56.4162 172.106 56.7298 172.077 56.9407 172.253Z" fill="#A9D8D5"/>
<path d="M25.1071 178.377L27.1797 180.105C27.3906 180.281 27.4189 180.595 27.243 180.805L27.176 180.886C27 181.096 26.6865 181.125 26.4755 180.949L24.4029 179.22C24.192 179.044 24.1637 178.731 24.3397 178.52L24.4066 178.44C24.5826 178.229 24.8962 178.201 25.1071 178.377Z" fill="#74B9FF"/>
<path d="M61.7273 160.746L63.3654 162.89C63.5321 163.108 63.4903 163.42 63.272 163.587L63.189 163.65C62.9706 163.817 62.6586 163.775 62.4919 163.557L60.8538 161.412C60.6871 161.194 60.729 160.882 60.9472 160.716L61.0302 160.652C61.2485 160.486 61.5607 160.527 61.7273 160.746Z" fill="#A9D8D5"/>
<path d="M52.2191 169.032L51.719 171.683C51.6681 171.953 51.408 172.131 51.1381 172.08L51.0354 172.06C50.7655 172.009 50.5879 171.749 50.6388 171.48L51.1389 168.828C51.1898 168.558 51.4499 168.381 51.7198 168.432L51.8225 168.451C52.0925 168.502 52.2701 168.762 52.2191 169.032Z" fill="#F6ACC1"/>
<path d="M41.6774 176.999L39.532 178.637C39.3137 178.803 39.0016 178.762 38.835 178.543L38.7715 178.46C38.6048 178.242 38.6467 177.93 38.8649 177.764L41.0103 176.126C41.2286 175.96 41.5407 176.001 41.7074 176.22L41.7708 176.303C41.9376 176.521 41.8957 176.833 41.6774 176.999Z" fill="#A9D8D5"/>
<path d="M58.3555 164.961L56.2102 166.598C55.9919 166.765 55.6798 166.723 55.5131 166.505L55.4497 166.422C55.283 166.203 55.3248 165.891 55.5431 165.725L57.6884 164.087C57.9068 163.921 58.2188 163.962 58.3855 164.181L58.449 164.264C58.6158 164.482 58.5739 164.794 58.3555 164.961Z" fill="#105D38"/>
<path d="M32.3357 176.711L31.8356 179.362C31.7847 179.632 31.5246 179.81 31.2547 179.759L31.1519 179.74C30.882 179.689 30.7045 179.429 30.7553 179.159L31.2555 176.507C31.3063 176.238 31.5664 176.06 31.8364 176.111L31.9391 176.13C32.209 176.181 32.3866 176.441 32.3357 176.711Z" fill="#F6ACC1"/>
<path d="M29.279 168.42L27.4517 170.406C27.2657 170.608 26.9512 170.621 26.749 170.435L26.6721 170.364C26.4699 170.178 26.4567 169.864 26.6427 169.662L28.47 167.676C28.6559 167.474 28.9705 167.461 29.1727 167.647L29.2496 167.718C29.4518 167.903 29.4649 168.218 29.279 168.42Z" fill="#A9D8D5"/>
<path d="M132.943 100.135L132.862 100.835H40.2296L40.3105 100.135H132.943Z" fill="white"/>
<path d="M131.313 108.62C131.187 108.86 131.049 109.093 130.903 109.32H41.4193C41.2724 109.093 41.1345 108.859 41.0076 108.62H131.313Z" fill="white"/>
<path d="M132.455 104.378L132.374 105.078H39.9455C39.9235 104.847 39.9106 104.614 39.9066 104.378H132.455Z" fill="white"/>
<path d="M142.321 157.923H104.417V200.346H142.321V157.923Z" fill="#4CD080"/>
<path d="M104.417 157.923H0.989807V200.346H104.417V157.923Z" fill="#AFFFCF"/>
<path d="M104.462 161.816H0.989807V162.516H104.462V161.816Z" fill="white"/>
<path d="M104.417 166.058H0.989807V166.758H104.417V166.058Z" fill="white"/>
<path d="M104.417 170.3H0.989807V171H104.417V170.3Z" fill="white"/>
<path d="M104.417 174.543H0.989807V175.243H104.417V174.543Z" fill="white"/>
<path d="M104.417 178.785H0.989807V179.485H104.417V178.785Z" fill="white"/>
<path d="M104.417 183.027H0.989807V183.727H104.417V183.027Z" fill="white"/>
<path d="M104.417 191.512H0.989807V192.212H104.417V191.512Z" fill="white"/>
<path d="M104.417 187.269H0.989807V187.969H104.417V187.269Z" fill="white"/>
<path d="M104.417 195.754H0.989807V196.454H104.417V195.754Z" fill="white"/>
<path d="M142.321 161.815H104.463V162.515H142.321V161.815Z" fill="#D4FFE5"/>
<path d="M142.321 166.058H104.417V166.758H142.321V166.058Z" fill="#D4FFE5"/>
<path d="M142.321 170.3H104.417V171H142.321V170.3Z" fill="#D4FFE5"/>
<path d="M142.321 174.542H104.417V175.242H142.321V174.542Z" fill="#D4FFE5"/>
<path d="M142.321 178.785H104.417V179.485H142.321V178.785Z" fill="#D4FFE5"/>
<path d="M142.321 183.027H104.417V183.727H142.321V183.027Z" fill="#D4FFE5"/>
<path d="M142.321 191.512H104.417V192.212H142.321V191.512Z" fill="#D4FFE5"/>
<path d="M142.321 187.269H104.417V187.969H142.321V187.269Z" fill="#D4FFE5"/>
<path d="M142.321 195.754H104.417V196.454H142.321V195.754Z" fill="#D4FFE5"/>
<path d="M181.369 121.997L172.361 200.346H127.615L118.607 121.997H181.369Z" fill="white"/>
<path d="M181.369 121.997L172.361 200.346H162.613L171.277 124.993H118.952L118.607 121.997H181.369Z" fill="#E0F1F0"/>
<path d="M186.228 121.997H113.749L114.324 118.793C114.57 117.425 115.761 116.428 117.152 116.428H118.395L119.307 112.951C119.947 110.508 122.155 108.805 124.681 108.805H175.295C177.822 108.805 180.029 110.508 180.67 112.951L181.581 116.428H182.825C184.216 116.428 185.407 117.425 185.652 118.793L186.228 121.997Z" fill="#105D38"/>
<path d="M127.615 200.346H172.361" stroke="#0D4B2D" stroke-width="5" stroke-miterlimit="10" stroke-linecap="round"/>
<path d="M148.279 170.864C156.033 170.864 162.319 164.156 162.319 155.881C162.319 147.605 156.033 140.897 148.279 140.897C140.525 140.897 134.239 147.605 134.239 155.881C134.239 164.156 140.525 170.864 148.279 170.864Z" fill="#A9D8D5"/>
<path d="M150.471 151.623L145.45 159.33C145.185 159.738 144.597 159.763 144.297 159.381C143.035 157.776 143.002 155.235 144.368 153.138C145.734 151.041 148.072 150.044 150.051 150.548C150.522 150.669 150.736 151.216 150.471 151.623Z" fill="#105D38"/>
<path d="M152.31 158.308C150.958 160.384 148.653 161.382 146.687 160.913C146.211 160.799 145.993 160.246 146.26 159.836L151.261 152.158C151.528 151.749 152.122 151.724 152.418 152.113C153.643 153.721 153.663 156.232 152.31 158.308Z" fill="#105D38"/>
<defs>
<linearGradient id="paint0_linear_1_380" x1="229.876" y1="-66.8854" x2="136.666" y2="40.8191" gradientUnits="userSpaceOnUse">
<stop offset="0.01"/>
<stop offset="0.13" stop-opacity="0.69"/>
<stop offset="0.25" stop-opacity="0.32"/>
<stop offset="1" stop-opacity="0"/>
</linearGradient>
<linearGradient id="paint1_linear_1_380" x1="291.966" y1="-434.295" x2="193.777" y2="-426.716" gradientUnits="userSpaceOnUse">
<stop offset="0.01"/>
<stop offset="0.13" stop-opacity="0.69"/>
<stop offset="0.25" stop-opacity="0.32"/>
<stop offset="1" stop-opacity="0"/>
</linearGradient>
</defs>
</svg>
