<svg width="250" height="324" viewBox="0 0 250 324" fill="none" xmlns="http://www.w3.org/2000/svg">
<g clip-path="url(#clip0_1_576)">
<path d="M181.192 40.8621C185.206 47.427 180.096 139.374 183.46 143.959C191.35 154.713 208.262 185.52 207.599 198.879C194.969 199.339 176.145 199.16 163.668 197.206C161.374 196.848 158.939 196.376 157.295 194.767C155.897 193.167 154.939 191.23 154.517 189.147L139.491 137.42C133.424 116.537 127.37 94.1348 133.921 73.3928C137.222 62.9324 143.531 53.7237 149.75 44.6938C153.23 39.5849 147.596 30.1846 154.071 29.099C160.851 27.9495 177.814 35.3573 181.192 40.8621Z" fill="url(#paint0_linear_1_576)"/>
<path d="M195.021 288.074V344.371C172.24 347.228 149.114 346.753 126.493 342.966C126.007 334.073 124.716 314.929 122.363 305.86C119.256 293.814 108.108 290.944 98.1611 280.079C88.2143 269.214 84.5066 227.869 82.0263 221.031C79.546 214.193 64.6641 202.135 56.8908 194.093C54.68 192.006 53.2474 189.322 52.8013 186.432C52.3553 183.541 52.919 180.594 54.4105 178.02C54.4105 178.02 91.0142 194.093 91.0142 190.645C91.0142 187.196 82.6527 179.768 82.6527 179.768C82.6527 179.768 60.9181 170.32 53.1575 162.266C45.397 154.212 50.3704 144.551 50.3704 144.551L96.9209 160.211L101.255 156.786L83.2664 148.756C83.2664 148.756 65.2395 140.146 54.6918 132.695C44.1441 125.243 48.5166 107.493 48.5166 107.493L116.162 136.143L108.095 120.105C108.095 120.105 67.7581 108.626 56.5839 98.848C45.4098 89.0696 48.5166 78.2047 48.5166 78.2047C48.5166 78.2047 129.83 95.9783 140.377 101.73C150.925 107.481 185.675 176.839 186.902 180.252C188.13 183.665 195.021 288.074 195.021 288.074Z" fill="#FCD4D0"/>
<path d="M132.099 249.686L121.279 287.211C121.279 287.211 94.3614 289.995 85.389 250.005C76.4166 210.016 132.099 249.686 132.099 249.686Z" fill="url(#paint1_linear_1_576)"/>
<path d="M150.604 28.23H78.5319C67.7133 28.23 58.9431 37.019 58.9431 47.8608V230.592C58.9431 241.434 67.7133 250.223 78.5319 250.223H150.604C161.423 250.223 170.193 241.434 170.193 230.592V47.8608C170.193 37.019 161.423 28.23 150.604 28.23Z" fill="#105D38"/>
<path d="M150.604 28.23H78.5319C67.7133 28.23 58.9431 37.019 58.9431 47.8608V230.592C58.9431 241.434 67.7133 250.223 78.5319 250.223H150.604C161.423 250.223 170.193 241.434 170.193 230.592V47.8608C170.193 37.019 161.423 28.23 150.604 28.23Z" fill="#4CD080"/>
<path d="M150.808 28H78.328C67.622 28 58.9431 36.6975 58.9431 47.4265V225.841C58.9431 236.57 67.622 245.267 78.328 245.267H150.808C161.514 245.267 170.193 236.57 170.193 225.841V47.4265C170.193 36.6975 161.514 28 150.808 28Z" fill="#105D38"/>
<path d="M147.469 33.0195H82.2536C72.6316 33.0195 64.8314 40.8364 64.8314 50.4791V210.616C64.8314 220.259 72.6316 228.076 82.2536 228.076H147.469C157.091 228.076 164.891 220.259 164.891 210.616V50.4791C164.891 40.8364 157.091 33.0195 147.469 33.0195Z" fill="#4CD080"/>
<path opacity="0.18" d="M117.646 71.3359C109.018 71.3334 100.582 73.895 93.4068 78.6968C86.2312 83.4987 80.6376 90.325 77.3333 98.3127C74.0291 106.3 73.1626 115.091 74.8434 123.572C76.5243 132.053 80.6769 139.844 86.7763 145.96C92.8757 152.076 100.648 156.242 109.11 157.932C117.572 159.621 126.344 158.758 134.316 155.451C142.289 152.144 149.104 146.543 153.9 139.355C158.695 132.167 161.256 123.715 161.259 115.068C161.256 103.475 156.66 92.3573 148.483 84.1575C140.305 75.9576 129.214 71.3461 117.646 71.3359V71.3359ZM117.646 151.341C110.623 151.343 103.757 149.259 97.9159 145.35C92.0751 141.442 87.522 135.885 84.8326 129.383C82.1432 122.882 81.4382 115.727 82.8068 108.823C84.1755 101.92 87.5562 95.5786 92.5215 90.6009C97.4867 85.6232 103.813 82.233 110.702 80.8589C117.59 79.4849 124.73 80.1888 131.218 82.8817C137.707 85.5745 143.253 90.1353 147.156 95.9872C151.058 101.839 153.141 108.719 153.141 115.758C153.13 125.189 149.388 134.232 142.734 140.903C136.08 147.574 127.058 151.327 117.646 151.341Z" fill="white"/>
<path d="M96.8848 107.698C96.6715 107.697 96.46 107.658 96.2603 107.583C95.8555 107.416 95.5324 107.096 95.3607 106.692C95.1891 106.288 95.1826 105.833 95.3427 105.425C95.3427 105.271 101.817 89.7915 117.634 90.2768C117.851 90.2834 118.065 90.3329 118.264 90.4225C118.462 90.5121 118.641 90.6401 118.79 90.799C118.94 90.958 119.056 91.1448 119.133 91.3489C119.21 91.5529 119.246 91.7702 119.239 91.9883C119.236 92.2063 119.189 92.4214 119.102 92.6211C119.015 92.8207 118.888 93.0008 118.73 93.1508C118.572 93.3007 118.386 93.4175 118.182 93.4943C117.979 93.571 117.762 93.6061 117.544 93.5976C103.958 93.2144 98.6309 106.114 98.427 106.663C98.3053 106.973 98.0925 107.237 97.817 107.422C97.5415 107.607 97.2163 107.703 96.8848 107.698Z" fill="white"/>
<path d="M139.529 114.033C139.105 114.034 138.697 113.871 138.388 113.579C138.08 113.287 137.895 112.887 137.873 112.462C137.799 108.824 136.678 105.284 134.642 102.27C132.607 99.256 129.746 96.8962 126.402 95.4753C125.991 95.3278 125.655 95.0237 125.466 94.6291C125.278 94.2344 125.252 93.7812 125.395 93.3679C125.464 93.1607 125.574 92.9694 125.717 92.8053C125.861 92.6413 126.036 92.5077 126.232 92.4124C126.428 92.3172 126.641 92.2622 126.858 92.2509C127.076 92.2395 127.293 92.2718 127.498 92.3461C131.478 93.9597 134.897 96.7096 137.331 100.254C139.764 103.799 141.105 107.982 141.186 112.283C141.207 112.723 141.054 113.153 140.761 113.481C140.468 113.808 140.057 114.007 139.619 114.033H139.529Z" fill="white"/>
<path d="M136.177 127.099C135.809 127.099 135.451 126.977 135.158 126.755C134.814 126.483 134.592 126.086 134.539 125.65C134.487 125.215 134.608 124.776 134.877 124.43C136.108 122.598 136.894 120.503 137.172 118.312C137.185 118.087 137.243 117.867 137.344 117.665C137.445 117.464 137.586 117.285 137.758 117.139C137.93 116.994 138.13 116.885 138.345 116.82C138.561 116.754 138.787 116.734 139.011 116.759C139.234 116.784 139.451 116.855 139.646 116.966C139.842 117.078 140.012 117.228 140.148 117.408C140.284 117.588 140.381 117.794 140.435 118.013C140.488 118.232 140.497 118.46 140.46 118.683C140.098 121.48 139.066 124.149 137.452 126.461C137.3 126.656 137.107 126.814 136.887 126.924C136.666 127.035 136.424 127.095 136.177 127.099V127.099Z" fill="white"/>
<path d="M102.416 109.729C102.182 109.729 101.952 109.676 101.741 109.576C101.343 109.394 101.033 109.063 100.878 108.654C100.723 108.245 100.735 107.792 100.912 107.392C102.207 104.477 104.204 101.93 106.725 99.9818C109.245 98.0331 112.21 96.7435 115.352 96.2288C120.284 95.4242 124.987 96.6886 127.6 99.5241C127.759 99.682 127.885 99.8706 127.969 100.079C128.054 100.286 128.095 100.509 128.091 100.734C128.087 100.958 128.038 101.18 127.946 101.384C127.854 101.589 127.722 101.773 127.557 101.925C127.393 102.077 127.199 102.194 126.988 102.269C126.776 102.344 126.552 102.375 126.329 102.361C126.105 102.347 125.887 102.287 125.687 102.186C125.487 102.085 125.31 101.944 125.166 101.772C123.33 99.7795 119.685 98.8854 115.875 99.5113C113.275 99.9344 110.822 101 108.737 102.613C106.652 104.225 105 106.333 103.933 108.746C103.801 109.038 103.588 109.286 103.319 109.461C103.05 109.635 102.736 109.728 102.416 109.729Z" fill="white"/>
<path d="M122.158 138.351C121.828 138.355 121.505 138.26 121.23 138.078C120.955 137.895 120.741 137.634 120.616 137.329C120.491 137.023 120.461 136.687 120.529 136.363C120.597 136.04 120.76 135.745 120.998 135.516C138.063 118.848 128.645 106.357 128.645 106.229C128.465 105.887 128.41 105.492 128.489 105.113C128.568 104.735 128.777 104.396 129.079 104.155C129.382 103.914 129.758 103.787 130.145 103.794C130.531 103.802 130.902 103.945 131.194 104.198C131.309 104.339 142.448 119.167 123.279 137.891C122.977 138.181 122.576 138.345 122.158 138.351V138.351Z" fill="white"/>
<path d="M96.7829 122.948C96.4636 122.95 96.1507 122.86 95.8816 122.687C95.6125 122.515 95.3989 122.269 95.2662 121.978C93.7624 118.606 94.7182 112.386 94.8329 111.696C94.908 111.264 95.1484 110.878 95.503 110.62C95.8576 110.362 96.2985 110.254 96.7319 110.317C96.9472 110.352 97.1533 110.43 97.3385 110.546C97.5237 110.661 97.6842 110.813 97.8109 110.991C97.9376 111.169 98.028 111.37 98.0769 111.583C98.1257 111.796 98.1321 112.017 98.0956 112.232C97.7387 114.48 97.4584 118.759 98.2868 120.611C98.4026 120.863 98.4532 121.14 98.4337 121.417C98.4142 121.693 98.3254 121.961 98.1754 122.194C98.0255 122.427 97.8192 122.618 97.5758 122.75C97.3323 122.882 97.0596 122.95 96.7829 122.948V122.948Z" fill="white"/>
<path d="M99.6761 130.726C99.3278 130.731 98.987 130.625 98.7029 130.422C98.4188 130.22 98.2061 129.933 98.0955 129.602C97.9849 129.271 97.9821 128.913 98.0875 128.58C98.193 128.248 98.4011 127.957 98.682 127.75C101.346 125.745 100.619 118.337 99.5232 114.135C99.4146 113.71 99.4783 113.259 99.7004 112.881C99.9225 112.503 100.285 112.229 100.708 112.117C100.919 112.06 101.138 112.045 101.354 112.074C101.57 112.103 101.778 112.175 101.965 112.286C102.153 112.396 102.317 112.544 102.447 112.719C102.577 112.894 102.67 113.093 102.722 113.305C103.079 114.582 105.959 126.422 100.67 130.394C100.385 130.613 100.035 130.73 99.6761 130.726V130.726Z" fill="white"/>
<path d="M103.818 134.571C103.459 134.57 103.11 134.452 102.824 134.235C102.537 134.019 102.329 133.715 102.229 133.369C102.13 133.023 102.146 132.655 102.274 132.318C102.402 131.982 102.635 131.697 102.939 131.505C103.194 131.339 108.801 127.674 106.456 118.273C104.94 112.168 106.456 108.349 108.126 106.229C109.322 104.753 110.837 103.568 112.557 102.765C114.277 101.961 116.157 101.561 118.054 101.593C118.271 101.581 118.489 101.613 118.693 101.688C118.898 101.762 119.085 101.878 119.243 102.027C119.402 102.176 119.528 102.356 119.615 102.556C119.702 102.756 119.748 102.971 119.749 103.189C119.758 103.407 119.723 103.624 119.648 103.828C119.572 104.032 119.457 104.219 119.309 104.378C119.16 104.537 118.982 104.665 118.785 104.755C118.587 104.845 118.373 104.894 118.156 104.901C116.753 104.864 115.36 105.145 114.081 105.722C112.801 106.299 111.667 107.158 110.764 108.234C109.095 110.444 108.712 113.65 109.668 117.469C112.612 129.296 105.003 134.072 104.685 134.328C104.423 134.486 104.124 134.57 103.818 134.571V134.571Z" fill="white"/>
<path d="M120.998 126.269C120.693 126.264 120.395 126.174 120.138 126.009C119.88 125.844 119.674 125.611 119.542 125.335C119.409 125.059 119.356 124.752 119.388 124.448C119.421 124.143 119.537 123.854 119.724 123.612C122.184 120.393 124.146 115.553 123.178 113.011C122.987 112.534 122.666 112.12 122.251 111.817C121.836 111.514 121.345 111.335 120.833 111.3C119.01 110.955 117.71 111.159 116.933 111.925C115.569 113.203 115.76 116.23 115.939 117.264C115.996 117.485 116.008 117.716 115.973 117.941C115.937 118.167 115.856 118.383 115.734 118.575C115.612 118.768 115.451 118.933 115.262 119.061C115.073 119.189 114.86 119.276 114.636 119.317C114.412 119.359 114.182 119.353 113.96 119.302C113.738 119.25 113.529 119.153 113.346 119.016C113.164 118.88 113.011 118.707 112.898 118.509C112.784 118.311 112.713 118.091 112.689 117.864C112.587 117.315 111.771 112.385 114.6 109.575C116.193 107.992 118.5 107.481 121.457 108.043C122.53 108.188 123.544 108.621 124.391 109.295C125.239 109.969 125.89 110.86 126.275 111.874C127.779 115.846 125.293 121.811 122.349 125.655C122.189 125.858 121.983 126.02 121.748 126.126C121.513 126.233 121.256 126.282 120.998 126.269Z" fill="white"/>
<path d="M109.171 136.959C108.842 136.957 108.522 136.857 108.25 136.672C107.979 136.487 107.768 136.225 107.645 135.92C107.522 135.615 107.493 135.28 107.56 134.958C107.627 134.636 107.789 134.341 108.024 134.111C112.612 129.641 112.485 122.961 112.485 122.897C112.471 122.457 112.633 122.029 112.934 121.708C113.235 121.387 113.651 121.199 114.09 121.186C114.53 121.172 114.957 121.334 115.277 121.636C115.597 121.938 115.785 122.354 115.798 122.795C115.798 123.127 115.989 130.982 110.331 136.487C110.021 136.791 109.605 136.961 109.171 136.959V136.959Z" fill="white"/>
<path d="M115.301 138.747C115.058 138.747 114.818 138.691 114.6 138.581C114.404 138.49 114.228 138.36 114.082 138.199C113.936 138.039 113.823 137.852 113.75 137.647C113.676 137.443 113.644 137.227 113.654 137.01C113.664 136.793 113.717 136.581 113.81 136.385L117.149 129.296C117.344 128.911 117.682 128.617 118.09 128.477C118.498 128.336 118.944 128.361 119.334 128.546C119.724 128.731 120.027 129.06 120.178 129.465C120.33 129.87 120.317 130.318 120.144 130.714L116.805 137.802C116.67 138.087 116.456 138.326 116.19 138.494C115.924 138.661 115.615 138.749 115.301 138.747V138.747Z" fill="white"/>
<path opacity="0.18" d="M97.2926 207.19C100.664 207.19 103.397 204.451 103.397 201.073C103.397 197.694 100.664 194.955 97.2926 194.955C93.921 194.955 91.1878 197.694 91.1878 201.073C91.1878 204.451 93.921 207.19 97.2926 207.19Z" fill="white"/>
<path opacity="0.18" d="M113.389 207.19C116.76 207.19 119.494 204.451 119.494 201.072C119.494 197.694 116.76 194.955 113.389 194.955C110.017 194.955 107.284 197.694 107.284 201.072C107.284 204.451 110.017 207.19 113.389 207.19Z" fill="white"/>
<path opacity="0.18" d="M129.473 207.19C132.845 207.19 135.578 204.451 135.578 201.072C135.578 197.694 132.845 194.955 129.473 194.955C126.102 194.955 123.368 197.694 123.368 201.072C123.368 204.451 126.102 207.19 129.473 207.19Z" fill="white"/>
<path d="M169.849 202.557C169.849 202.557 172.398 204.192 173.099 201.395C173.8 198.598 177.037 168.609 177.037 168.609L169.849 153.959V202.557Z" fill="url(#paint2_linear_1_576)"/>
<path d="M128.199 234.181H100.594C98.9888 234.181 97.6878 235.482 97.6878 237.087C97.6878 238.691 98.9888 239.992 100.594 239.992H128.199C129.804 239.992 131.105 238.691 131.105 237.087C131.105 235.482 129.804 234.181 128.199 234.181Z" fill="white"/>
<path d="M149.312 117.442C148.863 122.112 147.397 126.627 145.018 130.671C142.638 134.715 139.402 138.189 135.538 140.85C131.673 143.511 127.273 145.294 122.646 146.074C118.019 146.854 113.278 146.612 108.754 145.366C104.231 144.119 100.035 141.898 96.461 138.858C92.8872 135.817 90.0217 132.032 88.066 127.767C86.1101 123.502 85.1112 118.861 85.1394 114.169C85.1676 109.477 86.2221 104.849 88.229 100.607C93.8641 88.7194 106.498 81.0507 120.352 82.3727C138.034 84.0594 151 99.7614 149.312 117.442Z" fill="#E0F1F0"/>
<path d="M137.919 139.065L136.801 139.958C135.644 140.841 134.43 141.644 133.165 142.364C129.419 144.487 125.285 145.836 121.008 146.332C116.731 146.828 112.397 146.461 108.265 145.251C104.133 144.042 100.285 142.015 96.9502 139.292C93.6155 136.568 90.8614 133.203 88.8513 129.395C93.9576 125.642 102.507 121.158 113.442 122.073C131.733 123.612 137.919 139.065 137.919 139.065Z" fill="#FFAE58"/>
<path d="M116.125 129.697C115.919 129.698 115.713 129.686 115.509 129.661C114.152 129.499 112.915 128.805 112.07 127.732C111.225 126.658 110.841 125.293 111.002 123.936L113.443 103.407C113.605 102.05 114.299 100.813 115.373 99.9683C115.905 99.5499 116.514 99.2403 117.165 99.0572C117.816 98.8741 118.498 98.8211 119.17 98.9012C119.841 98.9814 120.491 99.193 121.081 99.5242C121.671 99.8553 122.19 100.3 122.609 100.831C123.027 101.363 123.337 101.972 123.52 102.623C123.703 103.275 123.756 103.956 123.676 104.628L121.235 125.157C121.086 126.407 120.483 127.56 119.542 128.396C118.6 129.233 117.384 129.696 116.125 129.697V129.697Z" fill="#FCD4D0"/>
<path d="M120.439 119.209L121.532 119.331C122.802 119.475 124.089 119.336 125.3 118.926C126.511 118.515 127.617 117.843 128.539 116.956C129.461 116.07 130.176 114.991 130.633 113.797C131.091 112.602 131.279 111.322 131.186 110.047L130.722 103.728C130.572 101.688 129.708 99.7653 128.281 98.2984C126.855 96.8315 124.957 95.914 122.921 95.7072V95.7072C120.625 95.4743 118.33 96.1631 116.541 97.6221C114.753 99.0811 113.617 101.191 113.384 103.487L112.755 109.682C112.523 111.962 113.2 114.241 114.639 116.025C116.077 117.808 118.161 118.953 120.439 119.209Z" fill="#FCD4D0"/>
<path d="M115.376 112.494L115.377 112.493C116.882 111.567 117.352 109.596 116.426 108.091L115.475 106.545C114.548 105.04 112.578 104.57 111.072 105.496L111.071 105.497C109.566 106.423 109.096 108.394 110.022 109.899L110.974 111.445C111.9 112.95 113.871 113.42 115.376 112.494Z" fill="#FCD4D0"/>
<path d="M111.432 107.997L113.998 110.709" stroke="white" stroke-linecap="square"/>
<path d="M126.687 104.531L126.867 109.609L125.061 109.682" stroke="white" stroke-linecap="square"/>
<path d="M121.306 111.259C121.157 111.535 121.063 111.837 121.031 112.15C120.999 112.462 121.028 112.777 121.118 113.078C121.207 113.379 121.355 113.659 121.553 113.902C121.751 114.146 121.995 114.348 122.271 114.497C122.547 114.646 122.85 114.74 123.162 114.772C123.474 114.805 123.789 114.775 124.09 114.686C124.391 114.596 124.671 114.448 124.914 114.25C125.158 114.052 125.36 113.809 125.509 113.533C126.137 112.371 124.916 111.84 123.747 111.213C122.578 110.585 121.934 110.098 121.306 111.259Z" fill="white"/>
<path d="M116.048 110.341L118.489 101.174L119.068 99.0048C119.612 99.5879 120.249 100.077 120.952 100.452C123.507 101.826 131.208 101.279 132.275 95.8783C133.146 91.4745 128.469 94.0058 126.075 93.7306C122.312 93.2967 119.702 91.0826 114.55 93.8662C108.387 97.2002 111.306 105.373 111.306 105.373C111.306 105.373 114.018 104.312 116.048 110.341Z" fill="#030319"/>
<path d="M121.804 119.359L118.54 119.062L121.52 121.97L121.804 119.359Z" fill="#105D38"/>
<path d="M123.208 107.274C123.703 107.274 124.105 106.873 124.105 106.378C124.105 105.883 123.703 105.482 123.208 105.482C122.713 105.482 122.312 105.883 122.312 106.378C122.312 106.873 122.713 107.274 123.208 107.274Z" fill="white"/>
<path d="M128.555 107.274C129.05 107.274 129.451 106.873 129.451 106.378C129.451 105.883 129.05 105.482 128.555 105.482C128.06 105.482 127.659 105.883 127.659 106.378C127.659 106.873 128.06 107.274 128.555 107.274Z" fill="white"/>
<path d="M177.528 207.071C171.727 197.027 165.774 186.936 157.85 178.234C149.925 169.532 139.802 162.197 128.011 159.159C125.18 158.417 121.691 158.122 119.77 160.242C118.507 161.749 118.507 163.916 118.797 165.847C119.759 172.314 122.382 178.47 126.443 183.792C129.54 187.842 133.42 191.339 136.365 195.484C139.309 199.629 141.331 204.739 140.042 209.555C132.737 236.755 124.99 267.076 144.352 288.541C146.217 290.821 148.572 292.714 151.265 294.099C153.846 295.114 156.595 295.708 159.392 295.853C164.186 296.309 168.984 296.552 173.787 296.584C176.925 296.779 180.072 296.341 183.013 295.3C191.228 291.85 192.378 281.618 192.34 273.222C192.239 250.108 189.269 227.453 177.528 207.071Z" fill="#FCD4D0"/>
</g>
<defs>
<linearGradient id="paint0_linear_1_576" x1="229.673" y1="108.427" x2="25.6042" y2="131.46" gradientUnits="userSpaceOnUse">
<stop stop-opacity="0"/>
<stop offset="0.99"/>
</linearGradient>
<linearGradient id="paint1_linear_1_576" x1="6665.9" y1="16338.3" x2="10959.5" y2="13258.2" gradientUnits="userSpaceOnUse">
<stop stop-opacity="0"/>
<stop offset="0.99"/>
</linearGradient>
<linearGradient id="paint2_linear_1_576" x1="1683.23" y1="8141.56" x2="4043.97" y2="14964.3" gradientUnits="userSpaceOnUse">
<stop stop-opacity="0"/>
<stop offset="0.99"/>
</linearGradient>
<clipPath id="clip0_1_576">
<rect width="250" height="324" fill="white"/>
</clipPath>
</defs>
</svg>
